<?xml version="1.0" encoding="utf-8"?>
<!-- Generator: Adobe Illustrator 16.0.0, SVG Export Plug-In . SVG Version: 6.00 Build 0)  -->
<!DOCTYPE svg PUBLIC "-//W3C//DTD SVG 1.1//EN" "http://www.w3.org/Graphics/SVG/1.1/DTD/svg11.dtd">
<svg version="1.1" id="Layer_1" xmlns="http://www.w3.org/2000/svg" xmlns:xlink="http://www.w3.org/1999/xlink" x="0px" y="0px"
	 width="16.054px" height="18.279px" viewBox="0 0 16.054 18.279" enable-background="new 0 0 16.054 18.279" xml:space="preserve">
<g>
	<g>
		<path fill="#010101" d="M8.001,17.109c0-0.037,0.009-0.08,0.027-0.129c0.02-0.049,0.034-0.086,0.046-0.111l2.043-3.193
			c0.036-0.023,0.096-0.096,0.176-0.213c0.081-0.117,0.167-0.244,0.26-0.381s0.173-0.27,0.241-0.398
			c0.067-0.131,0.102-0.221,0.102-0.271v-0.074L8.91,9.368C8.699,9.183,8.522,8.978,8.381,8.755
			c-0.143-0.223-0.319-0.42-0.529-0.594C7.765,8.285,7.666,8.446,7.555,8.644C7.442,8.843,7.332,9.04,7.221,9.237
			C7.108,9.437,6.998,9.618,6.887,9.785c-0.111,0.167-0.216,0.283-0.315,0.343l-0.779,1.355c-0.187,0.137-0.337,0.34-0.455,0.613
			c-0.118,0.271-0.245,0.514-0.38,0.725c-0.014,0.012-0.044,0.055-0.095,0.129c-0.049,0.074-0.102,0.152-0.156,0.232
			c-0.057,0.082-0.109,0.154-0.158,0.223s-0.081,0.115-0.092,0.139c-0.014,0.025-0.048,0.086-0.103,0.188
			c-0.056,0.1-0.115,0.209-0.176,0.334c-0.062,0.123-0.121,0.238-0.177,0.342c-0.057,0.105-0.09,0.17-0.103,0.195
			c-0.099,0.162-0.226,0.318-0.38,0.473c-0.155,0.154-0.27,0.326-0.344,0.51l-1.485,1.986c-0.024,0.049-0.07,0.1-0.139,0.148
			s-0.14,0.068-0.214,0.057c-0.013,0-0.043-0.016-0.093-0.047c-0.051-0.031-0.086-0.059-0.111-0.084
			c-0.037-0.037-0.105-0.102-0.204-0.195c-0.099-0.092-0.201-0.189-0.307-0.297c-0.105-0.105-0.204-0.207-0.297-0.305
			c-0.093-0.102-0.158-0.168-0.195-0.205c-0.062-0.074-0.1-0.127-0.111-0.158C0.006,16.455,0,16.39,0,16.291
			c0-0.098,0.067-0.262,0.205-0.492c0.136-0.229,0.288-0.467,0.455-0.715c0.167-0.246,0.334-0.473,0.501-0.676
			c0.167-0.205,0.274-0.332,0.324-0.381c0.261-0.42,0.532-0.828,0.817-1.225c0.284-0.396,0.532-0.811,0.742-1.244
			c0.099-0.197,0.231-0.381,0.398-0.547c0.167-0.168,0.294-0.363,0.38-0.586l2.748-4.399l0.074-0.055l0.705-1.207
			C7.375,4.715,7.413,4.69,7.462,4.69c0.087,0,0.183,0.027,0.288,0.084C7.854,4.83,7.938,4.87,8,4.896
			c0.248,0.26,0.467,0.517,0.658,0.77C8.85,5.919,9.052,6.183,9.262,6.454c0.322,0.408,0.641,0.804,0.956,1.188
			c0.314,0.383,0.608,0.793,0.881,1.226c0.359,0.557,0.712,1.115,1.058,1.671c0.347,0.557,0.706,1.107,1.077,1.65
			c0.137,0.199,0.256,0.381,0.361,0.547c0.104,0.168,0.219,0.338,0.344,0.512c0,0.049,0.024,0.074,0.074,0.074l1.763,2.543
			c0.062,0.062,0.124,0.127,0.187,0.195c0.062,0.066,0.092,0.145,0.092,0.23c0,0.1-0.043,0.244-0.13,0.438
			c-0.086,0.191-0.192,0.379-0.315,0.564c-0.124,0.188-0.257,0.352-0.398,0.492C15.067,17.929,14.94,18,14.83,18
			c-0.075,0-0.124-0.006-0.149-0.02c-0.025-0.012-0.062-0.057-0.111-0.129l-2.115-3.248l-0.148-0.15
			c-0.124,0.1-0.217,0.221-0.278,0.363s-0.154,0.256-0.277,0.344c-0.062,0.098-0.171,0.271-0.325,0.52
			c-0.155,0.248-0.319,0.51-0.492,0.789c-0.173,0.277-0.337,0.543-0.492,0.789c-0.155,0.248-0.263,0.422-0.325,0.52
			c-0.087,0.162-0.17,0.285-0.251,0.373c-0.08,0.086-0.22,0.129-0.417,0.129c-0.062,0-0.174-0.055-0.334-0.166
			c-0.161-0.111-0.324-0.238-0.491-0.381s-0.313-0.275-0.437-0.398C8.062,17.208,8.001,17.132,8.001,17.109z"/>
	</g>
	<g>
		<path fill="#010101" d="M7.281,5.114l-0.026-0.16L4.054,1.515c-0.009-0.019-0.036-0.061-0.08-0.127S3.898,1.267,3.881,1.222
			C3.854,1.196,3.837,1.174,3.828,1.155c-0.01-0.018-0.014-0.034-0.014-0.053l0.811-0.744c0.018-0.008,0.04-0.014,0.066-0.014
			s0.054,0,0.079,0c0.044,0,0.073,0.002,0.086,0.008c0.015,0.004,0.034,0.024,0.061,0.06c0.018,0.026,0.053,0.073,0.105,0.14
			c0.054,0.065,0.106,0.137,0.159,0.213C5.234,0.839,5.288,0.907,5.341,0.97S5.43,1.076,5.446,1.103L7.16,2.896L7.2,2.962V0.744
			c0-0.027,0.003-0.071,0.007-0.134c0.004-0.062,0.009-0.127,0.014-0.198C7.225,0.341,7.229,0.276,7.233,0.22
			c0.004-0.059,0.012-0.101,0.021-0.127c0.044-0.035,0.104-0.059,0.18-0.072C7.51,0.006,7.589,0,7.673,0s0.166,0.002,0.246,0.006
			c0.08,0.005,0.146,0.007,0.198,0.007h0.412l0.015,0.014c0.008,0.009,0.013,0.019,0.013,0.027C8.565,0.071,8.576,0.11,8.59,0.173
			c0.013,0.062,0.02,0.102,0.02,0.12v2.511h0.094C8.747,2.76,8.791,2.72,8.836,2.685c0.044-0.035,0.084-0.07,0.12-0.105
			c0.035-0.035,0.062-0.062,0.079-0.08c0.372-0.398,0.731-0.793,1.076-1.184c0.347-0.39,0.69-0.783,1.036-1.183
			c0.071-0.053,0.146-0.079,0.227-0.079c0.044,0,0.102,0.043,0.173,0.133c0.07,0.088,0.139,0.19,0.206,0.305
			c0.066,0.115,0.122,0.225,0.166,0.326c0.044,0.103,0.066,0.166,0.066,0.193c0,0.079-0.021,0.15-0.066,0.213
			c-0.044,0.061-0.098,0.119-0.159,0.172c-0.062,0.053-0.124,0.108-0.187,0.166c-0.062,0.059-0.114,0.119-0.158,0.18L9.874,3.415
			L9.808,3.548L8.73,4.651L8.705,4.717c0,0.009,0,0.058,0,0.146S8.702,5.051,8.698,5.161C8.694,5.272,8.691,5.38,8.691,5.485
			c0,0.106,0,0.191,0,0.254"/>
	</g>
</g>
</svg>
