<?xml version="1.0" encoding="utf-8"?>
<!-- Generator: Adobe Illustrator 16.0.0, SVG Export Plug-In . SVG Version: 6.00 Build 0)  -->
<!DOCTYPE svg PUBLIC "-//W3C//DTD SVG 1.1//EN" "http://www.w3.org/Graphics/SVG/1.1/DTD/svg11.dtd">
<svg version="1.1" id="Layer_1" xmlns="http://www.w3.org/2000/svg" xmlns:xlink="http://www.w3.org/1999/xlink" x="0px" y="0px"
	 width="39.689px" height="39.689px" viewBox="0 0 39.689 39.689" enable-background="new 0 0 39.689 39.689" xml:space="preserve">
<rect x="9.344" y="8.094" width="21" height="24.875"/>
<path fill="#FFFFFF" d="M19.904-0.055c-10.989,0-19.899,8.916-19.899,19.898c0,10.983,8.91,19.9,19.899,19.9
	c10.978,0,19.887-8.917,19.887-19.895C39.79,8.861,30.881-0.055,19.904-0.055z M25.262,12.957h-1.943
	c-1.529,0-1.823,0.719-1.823,1.786v2.335h3.63l-0.458,3.67H21.5v9.427h-3.78v-9.427h-3.18v-3.67h3.166V14.37
	c0-3.153,1.91-4.854,4.725-4.854c1.333,0,2.483,0.104,2.824,0.156v3.285L25.262,12.957L25.262,12.957z"/>
</svg>
