<svg xmlns="http://www.w3.org/2000/svg" width="7.94" height="7.94" viewBox="0 0 7.94 7.94"><path fill="#0d0d0d" d="M1.393 6.034v-4.14c.003-.007.008-.016.01-.025a.593.593 0 0 1 .452-.464c.014-.004.027-.01.04-.013h4.15l.02.01a.59.59 0 0 1 .48.592V5.96c0 .265-.18.5-.434.567l-.076.02H1.906c-.01-.003-.018-.008-.028-.01a.588.588 0 0 1-.46-.408c-.01-.03-.017-.065-.025-.096zm.594-2.457v2.149c0 .146.08.227.228.227h3.51c.15 0 .228-.08.228-.23V3.635v-.057h-.445c.112.49.032.944-.272 1.345a1.53 1.53 0 0 1-1.215.632 1.51 1.51 0 0 1-1.1-.398c-.47-.428-.62-.962-.49-1.58h-.443zm2.972.393a.985.985 0 0 0-.986-.99c-.55 0-.993.44-.993.99 0 .548.44.988.988.99.55 0 .99-.44.99-.99zm.495-.993H5.742c.13-.002.21-.083.21-.21v-.57c0-.124-.082-.21-.207-.21H5.17c-.125 0-.205.083-.207.207v.58c0 .124.08.2.206.203h.285z"/></svg>
