<?xml version="1.0" encoding="utf-8"?>
<!-- Generator: Adobe Illustrator 16.0.0, SVG Export Plug-In . SVG Version: 6.00 Build 0)  -->
<!DOCTYPE svg PUBLIC "-//W3C//DTD SVG 1.1//EN" "http://www.w3.org/Graphics/SVG/1.1/DTD/svg11.dtd">
<svg version="1.1" id="Layer_1" xmlns="http://www.w3.org/2000/svg" xmlns:xlink="http://www.w3.org/1999/xlink" x="0px" y="0px"
	 width="39.689px" height="39.689px" viewBox="0 0 39.689 39.689" enable-background="new 0 0 39.689 39.689" xml:space="preserve">
<rect x="6.344" y="7.594" width="26.875" height="23.75"/>
<g>
	<path fill="#FFFFFF" d="M24.063,16.405c0.33,0,0.672,0,1.013,0c0.319,0,0.641,0,0.973,0c0.009,0,0.009,0,0.037,0
		c0.447-0.01,0.74-0.292,0.74-0.737c0-0.67,0-1.321,0-2.002c0-0.438-0.293-0.738-0.729-0.748c-0.681-0.011-1.359-0.011-2.031,0
		c-0.444,0-0.719,0.301-0.719,0.729c0,0.681,0,1.353,0,2.032C23.354,16.124,23.617,16.396,24.063,16.405z"/>
	<path fill="#FFFFFF" d="M19.845,0C8.863,0-0.04,8.912-0.04,19.895c0,10.992,8.901,19.875,19.886,19.875
		c10.992,0,19.885-8.883,19.885-19.875C39.73,8.912,30.838,0,19.845,0z M28.912,26.892c0,0.924-0.632,1.739-1.545,1.992
		c-0.078,0.021-0.175,0.06-0.252,0.067c-4.841,0-9.682,0-14.512,0c-0.028,0-0.059-0.01-0.087-0.039
		c-0.826-0.146-1.361-0.649-1.634-1.418c-0.048-0.117-0.067-0.225-0.105-0.331c0-4.858,0-9.709,0-14.55
		c0.02-0.038,0.039-0.077,0.039-0.106c0.214-0.854,0.739-1.399,1.595-1.633c0.049-0.011,0.097-0.028,0.146-0.048
		c4.851,0,9.719,0,14.588,0c0.021,0,0.049,0.028,0.067,0.028c1.021,0.225,1.699,1.05,1.699,2.08
		C28.912,17.601,28.912,22.236,28.912,26.892z"/>
	<path fill="#FFFFFF" d="M19.845,23.383c1.924,0,3.488-1.545,3.488-3.487c0-1.916-1.545-3.479-3.469-3.479
		c-1.915-0.011-3.489,1.545-3.489,3.479C16.366,21.818,17.911,23.374,19.845,23.383z"/>
	<path fill="#FFFFFF" d="M24.307,23.247c-1.068,1.408-2.509,2.147-4.268,2.228c-1.478,0.048-2.799-0.398-3.878-1.41
		c-1.662-1.485-2.188-3.372-1.729-5.549c-0.516,0-1.03,0-1.564,0c0,0.077,0,0.137,0,0.194c0,2.449,0,4.908,0,7.366
		c0,0.506,0.281,0.797,0.815,0.797c4.11,0,8.224,0,12.332,0c0.524,0,0.815-0.281,0.815-0.807c0-2.459,0-4.907,0-7.349
		c0-0.059,0-0.126,0-0.194c-0.533,0-1.039,0-1.563,0C25.658,20.245,25.385,21.838,24.307,23.247z"/>
</g>
</svg>
