<svg width="591" height="220" viewBox="0 0 591 220" xmlns="http://www.w3.org/2000/svg"><title>Group</title><g fill="#000" fill-rule="evenodd"><text transform="rotate(-51 44.09 68.982)" font-family="GT Sectra" font-size="48" font-weight="313"><tspan x="10.682" y="73.207">THY</tspan></text><path d="M95.595 91.19L118.9 62.635l6.228 36.742-29.533-8.185zm35.226 41.655l3.38 20.19 32.203 8.73L143.097 23.71l-26.153-7.276-87.71 107.864 32.203 8.73 12.63-15.642 56.754 15.46zm108.164-113.34L209.807 11.5l-32.38 122.962 80.95 22.19 7.827-29.83-51.593-14.187 24.374-93.13zm101.19 4.567L310.82 16.07l-32.202 122.96 29.355 8.003 32.2-122.96zm34.02 121.637l26.865 7.275 88.953-107.318-32.38-8.913-59.243 71.485-16.368-92.222-32.38-8.913 24.552 138.604zM590.314 37.3l-79.88-21.828-32.38 122.96 79.88 21.83 7.828-29.832-50.526-13.824 4.27-16.734 50.704 13.824 7.828-29.83-50.704-13.825 4.447-16.733 50.705 13.824 7.828-29.83z"/><text font-family="GT Haptik" font-size="48" font-weight="473" transform="translate(-9 -11)"><tspan x="126" y="231">11-13 AUGUST 2016</tspan></text></g></svg>
