<?xml version="1.0" encoding="utf-8"?>
<!-- Generator: Adobe Illustrator 16.0.0, SVG Export Plug-In . SVG Version: 6.00 Build 0)  -->
<!DOCTYPE svg PUBLIC "-//W3C//DTD SVG 1.1//EN" "http://www.w3.org/Graphics/SVG/1.1/DTD/svg11.dtd">
<svg version="1.1" id="Layer_1" xmlns="http://www.w3.org/2000/svg" xmlns:xlink="http://www.w3.org/1999/xlink" x="0px" y="0px"
	 width="227px" height="293px" viewBox="0 0 227 293" enable-background="new 0 0 227 293" xml:space="preserve">
<polyline fill="#FFFFFF" stroke="#000000" stroke-width="8" stroke-miterlimit="10" points="192.167,290 223,256 223,4 122.41,4 
	39.077,4 36,4 3.795,35.564 "/>
<polygon fill="#FFFFFF" stroke="#000000" stroke-width="8" stroke-miterlimit="10" points="191,289 4,289 4,37 8.077,37 91.41,37 
	191,37 "/>
<polygon fill="none" stroke="#000000" stroke-width="8" stroke-miterlimit="10" points="126,208 69,208 69,119 70.767,119 
	96.057,119 126,119 "/>
<line fill="none" stroke="#000000" stroke-width="8" stroke-miterlimit="10" x1="223" y1="4" x2="189.128" y2="40.128"/>
<polygon fill="none" stroke="#000000" stroke-width="8" stroke-miterlimit="10" points="829,289 642,289 642,37 646.076,37 
	729.41,37 829,37 "/>
<polygon fill="none" stroke="#000000" stroke-width="8" stroke-miterlimit="10" points="764,208 707,208 707,119 708.767,119 
	734.057,119 764,119 "/>
<line fill="none" stroke="#000000" stroke-width="8" stroke-miterlimit="10" x1="861" y1="4" x2="827.129" y2="40.128"/>
<polyline fill="none" stroke="#000000" stroke-width="8" stroke-miterlimit="10" points="830.166,290 861,256 861,4 760.41,4 
	677.076,4 674,4 641.795,35.564 "/>
<line fill="none" stroke="#000000" stroke-width="8" stroke-miterlimit="10" x1="709" y1="163" x2="762" y2="163"/>
<rect x="708" y="162" width="56" height="48"/>
<polygon fill="none" stroke="#000000" stroke-width="8" stroke-miterlimit="10" points="829,289 642,289 642,37 646.076,37 
	729.41,37 829,37 "/>
<polygon fill="none" stroke="#000000" stroke-width="8" stroke-miterlimit="10" points="764,208 707,208 707,119 708.767,119 
	734.057,119 764,119 "/>
<line fill="none" stroke="#000000" stroke-width="8" stroke-miterlimit="10" x1="709" y1="163" x2="762" y2="163"/>
<rect x="708" y="162" width="56" height="48"/>
<polygon fill="#FFFFFF" stroke="#000000" stroke-width="8" stroke-miterlimit="10" points="126,208 69,208 69,119 70.767,119 
	96.057,119 126,119 "/>
<rect x="70" y="177" width="56" height="33"/>
</svg>
