<?xml version="1.0" standalone="no"?>
<!DOCTYPE svg PUBLIC "-//W3C//DTD SVG 1.1//EN" "http://www.w3.org/Graphics/SVG/1.1/DTD/svg11.dtd" >
<svg xmlns="http://www.w3.org/2000/svg">
<metadata>
This is a custom SVG webfont generated by Font Squirrel.
Copyright   : Copyright 2006 House IndustriesBrand Design Co Inc All Rights Reserved
Designer    : Tal Leming
Foundry     : House Industries
Foundry URL : httpwwwhouseindustriescom
</metadata>
<defs>
<font id="webfontjtJXFGGC" horiz-adv-x="1081" >
<font-face units-per-em="2048" ascent="1536" descent="-512" />
<missing-glyph horiz-adv-x="444" />
<glyph unicode=" "  horiz-adv-x="444" />
<glyph unicode="&#x09;" horiz-adv-x="444" />
<glyph unicode="&#xa0;" horiz-adv-x="444" />
<glyph unicode="!" horiz-adv-x="514" d="M264 -23q-102 0 -161.5 54.5t-59.5 148.5q0 88 56.5 142.5t160.5 54.5q102 0 157.5 -57.5t55.5 -145.5q0 -90 -60.5 -143.5t-148.5 -53.5zM117 457q-12 420 -47 979l370 -2q-16 -408 -32 -975q-125 4 -291 -2z" />
<glyph unicode="&#x22;" horiz-adv-x="636" d="M63 913q-10 205 -34 512q88 -2 247 7q-10 -166 -12 -508q-66 -1 -201 -11zM369 905q2 145 -13 551l252 -6q-23 -203 -41 -549z" />
<glyph unicode="#" horiz-adv-x="1005" d="M592 317q2 100 2 224h-182q0 -8 6 -199l-234 4v191l-161 -2q6 86 -3 227q63 -2 166 -2q0 152 -2 239q-43 0 -153 -4q4 80 -2 228q76 -2 153 -2q0 61 -4 192q92 -4 232 2q-2 -76 -2 -194l182 2l-4 217q92 -4 231 2q-2 -106 -2 -215q49 0 164 4l-4 -223h-160l2 -246 q53 0 168 4l-2 -225q-72 2 -162 2q0 -70 4 -226q-81 4 -233 0zM408 1004v-246q119 0 186 2q0 158 -2 246q-116 0 -184 -2z" />
<glyph unicode="$" horiz-adv-x="987" d="M649 -92l-305 4q10 143 10 197q-164 35 -249 148.5t-80 297.5q131 -8 327 -10q-8 -106 36 -161.5t122 -55.5q53 0 89 28.5t36 81.5q0 55 -53.5 93t-208.5 83q-172 47 -256 133.5t-84 235.5q0 135 85 222t236 114l-12 213l313 2q-14 -166 -16 -223q307 -72 315 -443 l-323 4q4 102 -33 160t-111 58q-121 0 -120 -115q0 -59 52 -96t193 -70q201 -47 279 -133t78 -217q0 -295 -324 -355z" />
<glyph unicode="%" horiz-adv-x="1382" d="M344 702q-328 0 -328 408q0 166 87 265.5t245 99.5q162 0 245 -101.5t83 -290.5q0 -381 -332 -381zM346 858q49 0 72.5 51.5t23.5 180.5q0 223 -96 223t-96 -221q0 -234 96 -234zM324 -31l-150 19l858 1442l156 -15zM1030 -45q-164 0 -246 106.5t-82 290.5 q0 168 87.5 273.5t244.5 105.5q164 0 248 -104.5t84 -282.5q0 -197 -91 -293t-245 -96zM1034 113q94 0 94 225q0 121 -22.5 175t-73.5 54q-94 0 -94 -217q0 -127 23.5 -182t72.5 -55z" />
<glyph unicode="&#x26;" horiz-adv-x="1269" d="M512 -63q-215 0 -351 110.5t-136 296.5q0 131 63.5 216t177.5 153q-135 186 -135 356q0 186 118 291.5t320 105.5q178 0 290 -101t112 -257q0 -68 -20.5 -127t-48.5 -99t-77 -82t-86 -66.5t-96 -59.5q86 -86 225 -199q43 117 64 258l276 -74q-33 -211 -106 -360l162 -113 q-53 -63 -158 -211l-156 115q-168 -153 -438 -153zM557 186q94 0 176 72q-174 139 -301 266q-63 -68 -63 -151q0 -86 51 -136.5t137 -50.5zM432 1059q0 -102 72 -215q168 100 168 241q0 63 -31 100.5t-84 37.5q-55 0 -90 -45t-35 -119z" />
<glyph unicode="'" horiz-adv-x="307" d="M45 915q2 131 -16 529l250 -4q-18 -186 -33 -527z" />
<glyph unicode="(" horiz-adv-x="608" d="M305 -289q-242 410 -242 910q0 270 66 516.5t195 421.5l268 -95q-193 -358 -193 -835q0 -401 195 -828q-76 -20 -147.5 -42.5t-106.5 -34.5z" />
<glyph unicode=")" horiz-adv-x="608" d="M305 -303q-121 45 -291 90q195 442 195 844q0 481 -193 842q106 35 275 100q129 -180 192.5 -429t63.5 -509q0 -500 -242 -938z" />
<glyph unicode="*" horiz-adv-x="667" d="M252 743l-197 93q78 125 125 215l-166 20q27 117 35 199q123 -39 182 -51l-22 219l237 8l-24 -227l192 53l39 -205l-161 -18l126 -211q-125 -45 -196 -82q-43 119 -84 207z" />
<glyph unicode="+" horiz-adv-x="804" d="M268 248q4 201 4 297l-245 -2q4 158 -2 256l249 -6l-2 297l260 -7q-4 -217 -4 -290l252 2l-4 -252l-248 2l4 -295z" />
<glyph unicode="," horiz-adv-x="458" d="M166 -258l-141 106q90 78 129 152q-53 16 -85 64.5t-32 105.5q0 84 54 137t140 53t137.5 -60t51.5 -159q0 -198 -254 -399z" />
<glyph unicode="-" horiz-adv-x="589" d="M25 535l-2 276l542 -6q-8 -227 -4 -270h-536z" />
<glyph unicode="." horiz-adv-x="454" d="M227 -18q-92 0 -142 55t-50 143q0 90 53 142.5t139 52.5q88 0 141.5 -54.5t51.5 -138.5q0 -98 -51.5 -149t-141.5 -51z" />
<glyph unicode="/" horiz-adv-x="788" d="M-4 -252l500 1761h297l-500 -1761h-297z" />
<glyph unicode="0" horiz-adv-x="1191" d="M596 -53q-258 0 -404.5 196.5t-146.5 561.5q0 360 144.5 547.5t404.5 187.5q272 0 412.5 -183.5t140.5 -541.5q0 -371 -141.5 -569.5t-409.5 -198.5zM598 225q92 0 140 113t48 381q0 449 -190 448q-98 0 -146.5 -110.5t-48.5 -345.5q0 -486 197 -486z" />
<glyph unicode="1" horiz-adv-x="782" d="M301 -6q4 618 -2 1020l-201 -109l-96 295l424 225l205 -24q0 -319 4 -670.5t8 -542.5l2 -192q-211 -6 -344 -2z" />
<glyph unicode="2" horiz-adv-x="1058" d="M1006 -4q-618 14 -955 12l-10 344q629 295 629 654q0 86 -36 133t-99 47q-182 0 -150 -365q-125 2 -340 -4q-33 307 97 473t409 166q240 0 360.5 -118.5t120.5 -325.5q0 -227 -148.5 -412.5t-404.5 -304.5q152 0 282 3t185 5l55 4z" />
<glyph unicode="3" horiz-adv-x="1114" d="M559 -47q-285 0 -421 146.5t-109 416.5q170 -8 358 -18q-27 -279 168 -279q176 0 176 178q0 127 -102 174q-94 37 -260 25q-2 84 -9 229q188 -12 275 29q88 43 88 162q0 184 -160 184q-184 0 -166 -274l-352 -6q-20 270 116 406t417 136q225 0 359 -117.5t134 -300.5 q0 -121 -63.5 -202.5t-169.5 -116.5q115 -31 184.5 -121t69.5 -223q0 -209 -150 -318.5t-383 -109.5z" />
<glyph unicode="4" horiz-adv-x="1122" d="M643 -2q0 92 4 264l-629 -8q-4 72 -6 291l469 895l492 -15q-4 -694 -2 -884q88 0 135 2l-2 -279h-133l4 -264q-238 -8 -332 -2zM344 539h305q2 352 2 626q-147 -282 -307 -626z" />
<glyph unicode="5" horiz-adv-x="1112" d="M563 -43q-526 0 -522 530l352 -6q6 -268 170 -268t164 262t-158 262q-121 0 -166 -174l-344 27q12 367 19 827q358 0 940 15q-4 -80 -4 -287q-248 2 -617 -8q-6 -209 -6 -289q111 123 303 123q203 0 298 -134.5t95 -357.5q0 -262 -139 -392t-385 -130z" />
<glyph unicode="6" horiz-adv-x="1146" d="M596 -47q-551 0 -551 739q0 362 137 562t424 200q240 0 362 -131t122 -367h-359q-10 233 -129 234q-186 0 -194 -434q115 131 301 131q213 -2 314 -113.5t101 -304.5q0 -258 -146 -387t-382 -129zM612 651q-123 0 -198 -116q31 -315 196 -316q72 0 113 58.5t41 171.5 q0 202 -152 202z" />
<glyph unicode="7" horiz-adv-x="956" d="M229 -20q-14 362 86.5 656t294.5 482l-596 -8l2 309l926 13q-2 -254 4 -347q-201 -207 -283.5 -476t-70.5 -642z" />
<glyph unicode="8" horiz-adv-x="1148" d="M590 -45q-283 0 -426.5 107.5t-143.5 310.5q0 119 67 207t198 131q-106 55 -168 147t-62 209q0 178 134.5 284.5t392.5 106.5t391 -107.5t133 -281.5q0 -244 -244 -348q266 -104 266 -344q2 -211 -149 -316.5t-389 -105.5zM578 201q80 0 131 46t51 126q0 82 -54.5 143.5 t-146.5 89.5q-84 -27 -130 -87t-46 -134q0 -86 51.5 -135t143.5 -49zM598 823q68 29 110 86.5t42 130.5q0 82 -45.5 127t-129.5 45q-86 0 -130 -45t-44 -120q0 -154 197 -224z" />
<glyph unicode="9" horiz-adv-x="1136" d="M553 -41q-252 0 -385 142.5t-131 396.5l121.5 -7.5t98.5 -4.5t72 -1h46h14q2 -254 164 -254q94 0 137 91.5t47 322.5q-98 -104 -272 -104q-207 0 -321.5 114.5t-114.5 317.5q0 225 142 354t380 129q541 0 541 -747q0 -393 -138.5 -571.5t-400.5 -178.5zM553 745 q111 0 180 93q-8 199 -52 279.5t-126 80.5q-80 0 -123 -59.5t-43 -169.5q0 -224 164 -224z" />
<glyph unicode=":" horiz-adv-x="466" d="M233 -31q-84 0 -134 54.5t-50 140.5q0 88 52.5 141t136.5 53q86 0 135 -52t49 -142q0 -96 -50.5 -145.5t-138.5 -49.5zM229 539q-86 0 -135 54t-49 144q0 86 52.5 137.5t133.5 51.5q88 0 136.5 -52.5t48.5 -136.5q0 -100 -51.5 -149t-135.5 -49z" />
<glyph unicode=";" horiz-adv-x="479" d="M178 -264q-82 68 -141 106q80 76 121 156q-45 16 -74 62t-29 106q0 82 51.5 134t141.5 52q88 0 137 -58t49 -147q0 -202 -256 -411zM244 537q-84 0 -135.5 55t-51.5 139t54.5 139.5t136.5 55.5q80 0 132 -54.5t52 -140.5q0 -94 -51 -144t-137 -50z" />
<glyph unicode="&#x3c;" horiz-adv-x="727" d="M688 178l-663 344l4 283l659 348v-14q-2 -16 -3 -39t-2 -61t-1 -83v-104q-174 -72 -422 -188q256 -121 434 -197q-6 -113 -6 -289z" />
<glyph unicode="=" horiz-adv-x="751" d="M41 367q0 43 -6 235q285 -2 682 4l-2 -239q-291 4 -674 0zM717 735l-682 4l6 238h674z" />
<glyph unicode="&#x3e;" horiz-adv-x="729" d="M37 176q2 86 0 147.5t-3 100.5t-1 41q250 104 438 199l-213 99q-106 48 -160 68l-53 23q2 96 0 159.5t-3 100.5t-1 39l351 -191q165 -87 237 -122l71 -35l5 -275z" />
<glyph unicode="?" horiz-adv-x="1058" d="M305 432l-4 350q207 -8 291 45.5t84 176.5q0 197 -150 196q-168 0 -161 -289l-342 2q-12 547 512 547q233 0 367 -114.5t134 -307.5q0 -385 -397 -442v-160zM481 -35q-111 0 -167 55.5t-56 147.5q0 90 61.5 143.5t157.5 53.5q104 0 160.5 -54.5t56.5 -150.5 q0 -88 -58.5 -141.5t-154.5 -53.5z" />
<glyph unicode="@" horiz-adv-x="1560" d="M1001 -281q-436 -94 -700 106t-264 687q0 389 193.5 611.5t549.5 222.5q367 0 555.5 -213t188.5 -611q0 -305 -72 -427t-219 -122q-168 0 -219 156q-94 -152 -332 -152q-168 0 -256 87.5t-88 220.5q0 328 553 325q0 41 -2 66q-12 162 -115 162q-115 0 -119 -176 q-119 2 -288 -7q-4 186 106.5 299t321.5 113q195 0 296 -104.5t109 -276.5q8 -168 -2 -375q-2 -150 72 -149q31 0 50 26.5t30.5 105.5t11.5 220q0 338 -139.5 510t-440.5 172q-291 0 -437 -179t-146 -507q0 -391 190.5 -559t583.5 -78zM903 389v86q-137 0 -206.5 -48 t-69.5 -128q0 -53 33.5 -85t87.5 -32q145 0 155 207z" />
<glyph unicode="A" horiz-adv-x="1116" d="M4 35l299 1395l494 8l315 -1473q-58 1 -116 1q-117 0 -236 -3l-49 281q-147 4 -338 4q-14 -80 -33 -217zM541 1200l-127 -700h252z" />
<glyph unicode="B" horiz-adv-x="1103" d="M92 0q-4 672 -18 1419q244 39 401 39q567 0 567 -403q0 -119 -62 -204t-175 -118q137 -37 208.5 -126t71.5 -222q0 -213 -156.5 -312.5t-465.5 -99.5q-176 0 -371 27zM410 209q31 -4 88 -4q248 0 247 198q0 197 -260 197q-38 0 -82 -4zM401 1204v-377q29 -2 56 -2 q117 0 182 37q80 45 80 158q0 190 -227 190q-42 0 -91 -6z" />
<glyph unicode="C" horiz-adv-x="1159" d="M598 -35q-553 0 -553 744q0 367 140.5 558t418.5 191q248 0 374 -157.5t136 -423.5l-358 -7q-14 315 -166 316q-184 0 -185 -463q0 -258 46.5 -370.5t144.5 -112.5q82 0 126 79.5t46 276.5l365 -4q-4 -324 -145 -476q-138 -151 -383 -151h-7z" />
<glyph unicode="D" horiz-adv-x="1153" d="M416 240q16 -2 47 -2q143 0 216 100t73 367q0 467 -285 466q-18 0 -64 -4zM76 -6v1417q184 29 321 29q365 0 538 -187.5t173 -558.5q0 -377 -180 -549t-547 -172q-147 1 -305 21z" />
<glyph unicode="E" horiz-adv-x="940" d="M90 8q-2 588 -16 1413l815 11q0 -109 4 -287q-207 -2 -487 -8q-1 -40 -1 -88q0 -96 3 -228q258 0 407 4q-1 -32 -1 -72q0 -81 3 -196q-78 2 -179 2t-226 -2q4 -186 8 -272q178 -8 481 -13l-2 -282q-375 14 -809 18z" />
<glyph unicode="F" horiz-adv-x="903" d="M90 4q0 592 -16 1417q381 4 800 11q0 -115 3 -306q-219 0 -469 -6q-1 -40 -1 -95q0 -110 3 -277q236 0 393 4q-1 -38 -1 -84q0 -91 3 -213q-73 1 -170.5 1t-220.5 -1l8 -449z" />
<glyph unicode="G" horiz-adv-x="1175" d="M602 -43q-264 0 -410.5 184.5t-146.5 573.5q0 356 141.5 548.5t413.5 192.5q236 0 368 -149.5t142 -409.5q-209 -4 -342 -10q-18 301 -174 301q-199 0 -199 -473q0 -262 55.5 -378t172.5 -116q164 0 182 279l-248 -6q1 29 1 67q0 76 -3 187l586 -3q1 -39 1 -75 q0 -361 -128 -529q-142 -184 -412 -184z" />
<glyph unicode="H" horiz-adv-x="1112" d="M705 -37q1 94 1 217t-1 275q-207 0 -295 -2l6 -418q-62 2 -128 1q-99 0 -206 -3v188q0 490 -8 1168q40 -1 90 -1q100 0 237 3q2 -264 7 -656q8 0 56 -1t98 -1h140q0 324 -6 725q46 -1 100 -1q106 0 236 3q0 -664 6 -1499z" />
<glyph unicode="I" horiz-adv-x="526" d="M98 -2q0 105 1 214q0 547 -9 1209q119 0 336 2q2 -686 10 -1425q-70 1 -154.5 1t-183.5 -1z" />
<glyph unicode="J" horiz-adv-x="999" d="M473 -27q-223 0 -335.5 123t-117.5 359q0 135 31 256q84 -12 301 -29q-12 -86 -12 -170q0 -244 133 -244q78 0 113 105.5t37 369.5q0 297 -66 691q111 6 330 24q68 -385 67 -727q0 -379 -115.5 -568.5t-365.5 -189.5z" />
<glyph unicode="K" horiz-adv-x="1128" d="M756 -49q-121 326 -213 538l-137 -243l4 -219l-336 -2v1370q120 -4 216 -4q64 0 116 2q-2 -276 -3 -703l353 768l362 -12l-338 -686l171 -409l126 -290l43 -92z" />
<glyph unicode="L" horiz-adv-x="876" d="M86 6q0 645 -12 1405q52 -2 135.5 -2t198.5 2q-1 -69 -1 -173q0 -313 9 -945l450 -6l-2 -289z" />
<glyph unicode="M" horiz-adv-x="1509" d="M55 33q31 571 51 1353h93q186 0 381 7q63 -381 163 -834q90 408 179 903l471 -16q14 -596 61 -1475q-174 -6 -342 -10q2 146 2 306q0 400 -14 884q-111 -494 -187 -907q-41 -1 -83 -1q-126 0 -255 5l-180 860q-3 -248 -2 -482q0 -312 4 -601q-184 4 -342 8z" />
<glyph unicode="N" horiz-adv-x="1144" d="M80 35q2 171 2 376q0 412 -8 965q145 8 323 15q152 -387 371 -881q-10 449 -39 950q141 -4 315 -4q6 -561 27 -1470q-129 -12 -321 -23l-375 862q4 -303 24 -794q-145 4 -319 4z" />
<glyph unicode="O" horiz-adv-x="1198" d="M600 -37q-272 0 -412.5 189.5t-142.5 552.5v19q0 330 136 527q140 203 419 203q281 0 418 -198q135 -195 135 -539v-10q-2 -744 -553 -744zM600 225q94 0 143.5 110.5t49.5 377.5q0 475 -195 475t-195 -475q0 -258 49.5 -373t147.5 -115z" />
<glyph unicode="P" horiz-adv-x="1064" d="M78 10l2 1389q156 20 297 20q674 0 674 -545q0 -274 -174 -407q-162 -124 -426 -124q-20 0 -41 1l8 -332q-57 1 -114 1q-114 0 -226 -3zM403 1147q0 -414 3 -551q22 -1 41 -1q127 0 194 55q78 65 78 224q0 135 -61.5 205t-200.5 70q-36 0 -54 -2z" />
<glyph unicode="Q" horiz-adv-x="1200" d="M856 -299l-143 274q-55 -12 -119 -12q-258 0 -403.5 186.5t-145.5 544.5q0 373 144.5 563.5t406.5 190.5q289 0 424 -184.5t135 -581.5q0 -391 -192 -580l190 -219zM600 219q94 0 144.5 104.5t50.5 370.5q0 268 -49.5 379t-147.5 111q-193 0 -192 -492q-1 -473 194 -473z " />
<glyph unicode="R" horiz-adv-x="1093" d="M745 -45l-219 524q-59 -6 -123 -6l9 -448q-56 1 -112 0q-112 0 -222 -2q0 59 1 167.5t3 476.5q1 123 1 245q0 247 -3 497q209 43 377 43q295 0 451.5 -127t156.5 -364q0 -289 -238 -408l265 -561zM403 711l43 -2q285 0 285 237q0 238 -235 238q-51 0 -99 -8z" />
<glyph unicode="S" horiz-adv-x="1085" d="M551 -37q-262 0 -393 139q-123 131 -124 371q0 15 1 31q44 -1 97 -1q106 0 251 3q-1 -16 -1 -31q0 -116 42 -181q47 -73 137 -73q137 0 137 150q0 72 -57 124t-217 109q-205 76 -294 176.5t-89 272.5q0 197 130 301t355 104q254 0 383 -139q123 -133 123 -374v-23 q-143 10 -338 12q2 25 2 47q0 99 -37 155q-45 69 -133 68q-63 0 -97 -42t-34 -113.5t56.5 -123t191.5 -98.5q242 -82 330 -182t88 -258q0 -215 -137 -319.5t-373 -104.5z" />
<glyph unicode="T" horiz-adv-x="958" d="M18 1120q0 111 -2 303q465 0 926 7l-2 -310q-127 0 -295 2q0 -279 10 -1132q-46 1 -98 0q-106 0 -240 -2q1 112 1 238q0 380 -5 896z" />
<glyph unicode="U" horiz-adv-x="1107" d="M557 -29q-266 0 -389 202t-123 615q0 299 51 613q100 -16 326 -41q-45 -332 -45 -518q0 -559 176 -559q90 0 129 104.5t39 374.5q0 303 -55 680q117 4 335 22q63 -387 64 -688q0 -410 -121 -607.5t-387 -197.5z" />
<glyph unicode="V" horiz-adv-x="1079" d="M285 -31l-142 723l-104 510l-35 162l348 4q82 -596 178 -1118l195 1186l350 -2l-297 -1471q-239 0 -493 6z" />
<glyph unicode="W" horiz-adv-x="1544" d="M901 -53l-133 1071l-154 -985l-460 18l-80 806l-54 534l338 6q37 -686 68 -1075l166 1001l356 -4l168 -1069q68 944 76 1202l334 -8l-86 -843q-37 -370 -47 -503l-13 -135z" />
<glyph unicode="X" horiz-adv-x="1165" d="M403 25l-397 12l295 655q-72 203 -266 690q182 4 375 13q47 -172 161 -521q127 383 181 586l378 -10l-282 -741l309 -727l-395 -19l-184 567l-93 -257l-63 -187z" />
<glyph unicode="Y" horiz-adv-x="1112" d="M387 -25v49q0 38 -2 112.5t-6 168.5l-375 1077q88 0 367 13q55 -242 180 -686l203 735q100 -6 354 -6l-391 -1129q-1 -16 -2 -58q0 -85 6 -274q-28 1 -75 1q-92 0 -259 -3z" />
<glyph unicode="Z" horiz-adv-x="962" d="M913 -6l-870 12l2 281l514 835l-504 -10l-2 307l854 13l4 -297l-510 -838l517 -6z" />
<glyph unicode="[" horiz-adv-x="632" d="M596 -260l-496 6q4 571 -8 1780q182 -2 494 4q-2 -102 4 -252q-74 0 -164 -4q-6 -727 2 -1262q78 -4 176 -4q-6 -98 -8 -268z" />
<glyph unicode="\" horiz-adv-x="788" d="M793 -250q-119 4 -297 0l-500 1761q106 -4 297 0z" />
<glyph unicode="]" horiz-adv-x="632" d="M41 -258q0 45 -1 89t-2 73.5t-2 53.5t-2 36t-1 14q39 0 79 1t66.5 2t30.5 1q10 717 -2 1280q-39 2 -166 2q2 70 2 254q195 -4 496 -4q-12 -1057 -7 -1794q-86 0 -201.5 -2t-201.5 -4t-88 -2z" />
<glyph unicode="^" horiz-adv-x="890" d="M870 588l-270 6q-53 219 -156 569q-80 -258 -159 -585q-86 10 -267 12q106 289 277 817l299 -2z" />
<glyph unicode="_" horiz-adv-x="784" d="M12 -233l-2 253q518 -10 770 -2q-4 -133 -4 -251q-555 8 -764 0z" />
<glyph unicode="`" d="M594 1096l-262 282l192 133q63 -102 224 -313q-50 -28 -154 -102z" />
<glyph unicode="a" horiz-adv-x="1005" d="M369 -31q-156 0 -249 79t-93 214q0 176 147 270q133 85 384 85q27 0 56 -1q0 27 -2 48q-8 170 -116 170q-115 0 -125 -168q-119 2 -305 8q6 174 122.5 278.5t313.5 104.5q225 0 331.5 -109.5t110.5 -324.5q5 -194 5 -380q0 -139 -3 -272q-98 0 -266 -2q6 63 8 162 q-86 -162 -319 -162zM629 420v39h-24q-125 0 -185 -41q-66 -45 -66 -123q0 -115 117 -115q158 0 158 240z" />
<glyph unicode="b" horiz-adv-x="1085" d="M72 -33q1 112 0 258q0 437 -4 1174l333 -2q-8 -201 -12 -500q96 154 279 154q178 0 275 -142.5t97 -396.5t-112.5 -391t-296.5 -137q-207 0 -291 143q0 -27 3 -85t3 -73q-137 0 -274 -2zM541 182q156 0 155 338q0 143 -39 230.5t-116 87.5q-74 0 -114 -85t-40 -233 q0 -338 154 -338z" />
<glyph unicode="c" horiz-adv-x="1026" d="M535 -33q-246 0 -368 143.5t-122 405.5q0 250 125 396.5t358 146.5q215 0 339 -126t126 -329l-340 -4q-6 225 -129 225q-143 0 -143 -315q0 -295 145 -295h4q52 0 85 51q34 53 36 164q100 -8 348 -8q-16 -236 -140.5 -345.5t-323.5 -109.5z" />
<glyph unicode="d" horiz-adv-x="1091" d="M1018 -41q-158 4 -281 4q4 68 6 170q-90 -156 -286 -156q-193 0 -302.5 138.5t-109.5 402.5q0 246 103.5 391.5t293.5 145.5q160 0 254 -133q-4 211 -14 483q23 -1 68 -1q90 0 270 3zM545 186q156 0 155 324q-4 328 -157 328q-72 0 -112 -86t-40 -238q0 -328 154 -328z " />
<glyph unicode="e" horiz-adv-x="1062" d="M547 -33q-502 0 -502 553q0 242 129 389.5t358 147.5q489 -2 489 -559q0 -31 -1 -64q-223 -2 -635 -10q18 -240 158 -240q115 0 139 166l340 -10q-43 -182 -168 -277.5t-307 -95.5zM539 846q-137 0 -154 -260q193 4 297 10q-4 250 -143 250z" />
<glyph unicode="f" horiz-adv-x="778" d="M743 696q-100 2 -247 2l4 -694q-46 1 -98 1q-102 0 -222 -3q-6 346 -8 696h-141q1 42 1 112t-1 167q51 -4 143 -6v24q4 211 92 320.5t291 109.5q100 0 221 -26q-10 -88 -18 -264q-72 10 -109 10q-86 0 -118.5 -39t-32.5 -121v-20l248 -2z" />
<glyph unicode="g" horiz-adv-x="980" d="M479 -557q-213 0 -337 64.5t-124 185.5q0 78 55.5 135t157.5 82q-63 25 -99 69t-36 95q0 111 148 180q-207 104 -207 383q0 199 125 316.5t332 117.5q45 0 88 -6l73 362q119 -47 318 -112q-82 -123 -195 -320q174 -117 174 -362q0 -215 -126 -323.5t-316 -108.5 q-55 0 -104 6q-20 -18 -21 -41q0 -25 41 -41t154 -27q229 -20 330.5 -93t101.5 -208q0 -170 -157 -262t-376 -92zM494 395q133 0 133 230q0 104 -34 164.5t-99.5 60.5t-100.5 -59.5t-35 -165.5q1 -230 136 -230zM698 -264q0 49 -59 74.5t-211 33.5q-86 -45 -86 -110 q0 -49 47 -75q44 -24 115 -24h12q84 0 133 28t49 73z" />
<glyph unicode="h" horiz-adv-x="1028" d="M70 35q4 298 4 636.5t-4 717.5q111 0 323 2l-4 -498q96 164 291 164q135 0 209 -91.5t80 -254.5q6 -192 5 -402q0 -167 -3 -346q-127 4 -326 4q0 39 1 99.5t3 243.5q1 61 1 116q0 109 -3 192q-4 78 -26.5 116t-75.5 38q-68 0 -105 -59.5t-39 -155.5v-520q-43 1 -94 1 q-102 0 -237 -3z" />
<glyph unicode="i" horiz-adv-x="489" d="M86 2v129q0 296 -6 895q40 -1 90 -1q100 0 238 3q0 -94 -1 -191q0 -389 7 -833q-46 1 -99 1q-103 0 -229 -3zM248 1124q-205 0 -205 179q0 82 52 127t153 45q98 0 148 -47.5t50 -124.5q0 -80 -50 -129.5t-148 -49.5z" />
<glyph unicode="j" horiz-adv-x="489" d="M248 1124q-106 0 -155.5 49.5t-49.5 129t51 127t152 47.5q96 0 148 -47.5t52 -124.5q0 -88 -52 -134.5t-146 -46.5zM-147 -451q6 86 8 269q49 -4 67 -4q86 0 122 41t38 133q2 217 2 446.5t-2 409.5l-2 178l317 2q2 -49 4.5 -137t5.5 -376q1 -123 1 -244q0 -161 -2 -316 q-2 -412 -420 -412q-57 0 -139 10z" />
<glyph unicode="k" horiz-adv-x="1021" d="M666 -43q-109 291 -166 426l-103 -158l2 -194l-329 2v1360l329 -2q-4 -725 -4 -826l127 263q57 124 80 180l25 55l377 -14q-154 -233 -271 -433l283 -647z" />
<glyph unicode="l" horiz-adv-x="481" d="M403 16l-327 4q5 564 4 937q0 279 -2 450l330 -4q-6 -682 -7 -1053q0 -223 2 -334z" />
<glyph unicode="m" horiz-adv-x="1585" d="M74 31v169q0 352 -6 810l264 -2q-4 -74 -4 -170q47 98 134 157.5t193 59.5q213 0 273 -213q47 82 128 130t179 48q276 0 289 -346q4 -137 4 -315v-285l-2 -109l-324 2l2 221q0 214 -6 402q-6 154 -96 153q-63 0 -99 -58t-38 -153v-473q-50 1 -104 1q-107 0 -228 -3 q2 35 3 89.5t3 213.5q1 53 1 100q0 93 -3 158q-4 152 -96 152q-59 0 -99.5 -63.5t-42.5 -161.5q-3 -95 -2 -203q0 -143 4 -309q-49 1 -102 0q-105 1 -225 -2z" />
<glyph unicode="n" horiz-adv-x="1026" d="M641 -39l2 660q0 152 -98 151q-66 0 -104 -58.5t-42 -150.5l-2 -532q-89 2 -171.5 2t-157.5 -2l2 973q54 -2 106 -2q79 0 154 4l-2 -164q43 96 132 155q86 57 196 58h8q143 -2 220 -92.5t81 -255.5q6 -147 6 -744z" />
<glyph unicode="o" d="M537 -27q-240 0 -366 144.5t-126 412.5q0 242 133 384.5t361 142.5q238 0 367.5 -144.5t127.5 -392.5q0 -276 -135 -411.5t-362 -135.5zM541 195q154 0 153 327q0 313 -151 314q-156 0 -156 -306q0 -178 37 -256.5t117 -78.5z" />
<glyph unicode="p" horiz-adv-x="1095" d="M68 -424v1440l284 2q-4 -123 -4 -133q102 172 307 172q184 0 290 -154.5t106 -392.5q0 -260 -108.5 -397.5t-289 -137.5t-264.5 127q8 -375 21 -524q-80 2 -156 2t-131 -2zM555 184q150 0 150 328t-152 328q-156 0 -156 -328t158 -328z" />
<glyph unicode="q" horiz-adv-x="1097" d="M686 -436q16 379 19 542q-78 -133 -263 -133q-188 0 -292.5 143.5t-104.5 401.5q0 244 112.5 395.5t288.5 151.5q98 0 176 -46t121 -122l-6 158h289q-4 -406 -4 -777.5t2 -541.5l2 -170zM543 184q158 0 157 332q0 145 -41 234.5t-114 89.5q-78 0 -117 -88t-39 -234 q0 -334 154 -334z" />
<glyph unicode="r" horiz-adv-x="737" d="M70 -2q2 207 1 411q0 305 -3 603q28 -1 67 -1q79 0 203 3q-4 -80 -4 -183q47 106 151 167q92 53 203 54q15 0 31 -1q-6 -109 -10 -312q-170 -12 -239 -91t-73 -265l4 -383q-110 0 -331 -2z" />
<glyph unicode="s" horiz-adv-x="944" d="M492 -43q-217 0 -339 101.5t-124 306.5l311 -7q2 -176 152 -176q51 0 81.5 24.5t30.5 69.5q0 47 -46 78t-185 64q-172 39 -252 121t-80 217q0 139 112.5 226t309.5 87q213 0 326.5 -109.5t117.5 -291.5q-28 1 -60 0q-98 0 -241 -4q-2 82 -36.5 129t-100.5 47 q-55 0 -84 -26t-29 -64q0 -51 46.5 -84t170.5 -64q199 -49 274 -121.5t75 -195.5q0 -164 -118.5 -246t-311.5 -82z" />
<glyph unicode="t" horiz-adv-x="786" d="M756 33q-150 -39 -256 -39q-344 0 -350 377q-2 137 -3 399h-133l-2 266q47 -2 138 -2l4 264h321q-4 -111 -6 -268h268l-2 -262q-96 2 -266 2q0 -223 4 -334q2 -143 141 -143q49 0 119 18z" />
<glyph unicode="u" horiz-adv-x="1030" d="M410 -8q-188 0 -270.5 140t-82.5 464q0 223 27 430q80 -12 309 -22q-16 -150 -16 -330q0 -238 29.5 -326t99.5 -88q53 0 89 54.5t38 158.5q3 100 3 191q0 46 -1 89q-2 130 -4 218l-4 88q84 -4 329 -4q-3 -192 -2 -419q0 -301 4 -663l-272 2q2 74 4 172 q-94 -155 -280 -155z" />
<glyph unicode="v" horiz-adv-x="968" d="M713 10h-451l-260 983l338 13q41 -244 77 -433.5t50 -257.5l14 -67q125 608 156 817l330 -8z" />
<glyph unicode="w" horiz-adv-x="1449" d="M844 -16l-129 710q-94 -469 -121 -665l-420 6l-168 969l324 8q53 -532 84 -719l145 737h311q115 -596 160 -760l88 801l326 -6l-103 -589q-45 -269 -61 -378l-16 -110z" />
<glyph unicode="x" horiz-adv-x="1062" d="M10 20q182 338 260 498l-243 490l356 4q80 -219 141 -363l166 414l346 -12q-172 -332 -264 -533l281 -549l-357 -4l-174 408l-81 -191q-36 -88 -48 -125l-12 -37h-371z" />
<glyph unicode="y" horiz-adv-x="995" d="M588 -473l-330 47l88 340l-178 575l-125 383l-39 117q102 2 190.5 6t124.5 9l37 4q37 -197 75 -374l56 -257l19 -78l84 420q37 193 49 270l12 78l342 -16z" />
<glyph unicode="z" horiz-adv-x="888" d="M844 -2q-272 8 -472 12t-266 4h-63l2 217l412 533q-135 -2 -234.5 -5t-130.5 -5l-31 -4l-6 276q242 0 436.5 3t270.5 5l74 2q-1 -41 -1 -76q0 -105 5 -153q-295 -365 -412 -541h420z" />
<glyph unicode="{" horiz-adv-x="710" d="M676 -248q-111 -27 -199 -26q-156 0 -222.5 73.5t-66.5 237.5l13 282q0 109 -39 154t-146 41q4 123 4 285q100 -8 139.5 26.5t39.5 124.5q0 45 -9.5 161t-9.5 169q0 137 72 201.5t219 64.5q92 0 195 -26l4 -248q-96 10 -131 -13.5t-35 -99.5q0 -41 8 -139t8 -143 q0 -92 -35.5 -143.5t-122.5 -78.5q86 -29 119 -88t33 -161l-10 -261q0 -92 33.5 -120.5t136.5 -18.5z" />
<glyph unicode="|" horiz-adv-x="509" d="M111 -252q4 905 -7 1768l299 -7q0 -84 -1 -231.5t-3 -621.5t2 -906q-97 4 -290 -2z" />
<glyph unicode="}" horiz-adv-x="708" d="M33 -258q0 2 1 12t1 28.5t1 46.5t1 70t-2 91q100 -12 139 14.5t39 110.5q0 37 -8 143.5t-8 159.5q0 190 161 235q-88 23 -128 76t-40 156q0 49 8.5 143t8.5 133q0 72 -37 96.5t-131 16.5l2 12q0 10 1 28.5t2 49.5t1 71v93q96 20 176 20q166 0 236.5 -65.5t70.5 -202.5 q0 -55 -10 -164.5t-10 -154.5q0 -96 39 -132t143 -30v-87v-76q0 -32 1 -57.5t1 -40.5v-18q-102 6 -143 -34t-41 -144l18 -338q0 -150 -69.5 -220.5t-223.5 -68.5q-100 0 -200 27z" />
<glyph unicode="~" horiz-adv-x="860" d="M213 1063q-80 6 -186 16q-8 188 57.5 283.5t183.5 95.5q49 0 99.5 -24.5t83 -54t68.5 -54.5t61 -25q35 0 52 33t19 121q68 -8 185 -12q12 -379 -230 -379q-82 0 -186.5 74.5t-136.5 74.5q-37 0 -53.5 -31.5t-16.5 -117.5z" />
<glyph unicode="&#xa1;" horiz-adv-x="514" d="M74 -215q18 412 35 977q123 -4 290 2q10 -422 45 -981zM254 840q-100 0 -155.5 57t-55.5 145q0 90 59.5 143.5t149.5 53.5q102 0 160.5 -54.5t58.5 -148.5q0 -88 -56.5 -142t-160.5 -54z" />
<glyph unicode="&#xa2;" horiz-adv-x="1019" d="M371 -90q4 57 12 209q-168 43 -260 194.5t-92 405.5q0 516 352 594l-14 219l313 4l-16 -227q158 -43 239.5 -169t79.5 -313l-338 -6q-10 258 -135 258q-145 0 -145 -344q0 -205 37.5 -290t115.5 -85q131 0 129 261q117 -6 342 -7q-16 -424 -323 -495l10 -209h-307z" />
<glyph unicode="&#xa3;" horiz-adv-x="1103" d="M45 504l-2 258l102 -2q-66 188 -65 282q0 193 130 306.5t365 113.5q264 0 390.5 -160.5t109.5 -424.5q-127 0 -350 -5q14 313 -143 314q-145 0 -146 -191q0 -80 53 -235l398 4l4 -268q-31 0 -164 3t-197 3q-18 -123 -96 -211q285 -6 627 2l-6 -305q-356 12 -1004 14 l2 262q121 88 137 240h-145z" />
<glyph unicode="&#xa5;" horiz-adv-x="1112" d="M92 408q2 68 -6 204h211q-84 238 -293 770q94 -2 363 13l186 -684l205 733q14 -2 39.5 -3t117 -3t193.5 -2q-131 -322 -303 -815l209 6l-2 -203q-102 0 -295 -2q0 -2 -1 -34t-1 -52q137 0 303 6q-2 -59 2 -197q-106 0 -303 -2l6 -172q-106 4 -332 0q2 70 2 168l-311 -6 q2 70 2 199q106 -2 305 0q0 53 -2 84z" />
<glyph unicode="&#xa7;" horiz-adv-x="1077" d="M559 -356q-250 0 -390 127t-138 372l346 -10q-4 -113 41 -173t137 -60q70 0 111 35.5t41 99.5q0 72 -71 108.5t-171 53t-199.5 40t-170 93t-70.5 188.5q0 86 56 150.5t146 89.5q-90 45 -137 128t-47 185q0 178 129 283.5t348 105.5q242 0 372 -128t128 -369 q-246 18 -332 12q6 111 -35 167t-121 56q-70 0 -107.5 -37t-37.5 -98.5t49 -100t124 -54t161 -37t160.5 -47t124 -89t49.5 -157.5q0 -80 -47 -148t-123 -108q168 -78 170 -273q0 -184 -137.5 -294.5t-358.5 -110.5zM373 563q0 -63 58 -98t216 -59q61 49 62 116 q0 66 -55.5 103t-188.5 57q-92 -41 -92 -119z" />
<glyph unicode="&#xa8;" d="M360 1139q-70 0 -106.5 41t-36.5 102t41 99t102 38q68 0 106 -39t38 -100q0 -70 -41.5 -105.5t-102.5 -35.5zM727 1145q-61 0 -99 39t-38 104q0 59 37 96t104 37q63 0 98 -39t35 -98q0 -68 -38 -103.5t-99 -35.5z" />
<glyph unicode="&#xa9;" horiz-adv-x="1325" d="M662 186q-193 0 -289.5 122t-96.5 392q0 254 104.5 384t293.5 130q176 0 269 -110.5t87 -300.5l-260 4q-2 213 -104 213q-63 0 -92 -75t-29 -249t28.5 -243.5t90.5 -69.5q53 0 80.5 52t27.5 183l260 3q2 -125 -28.5 -213.5t-87 -134.5t-118.5 -66.5t-136 -20.5zM647 -43 q-602 0 -602 762q0 348 160 541.5t475 193.5q297 0 448.5 -195.5t151.5 -547.5q0 -217 -48 -369t-138 -233.5t-198 -116.5t-249 -35zM657 61q106 0 190.5 28t160 95.5t116.5 199.5t41 323q0 641 -491 641q-260 0 -387 -167t-127 -476q-1 -644 497 -644z" />
<glyph unicode="&#xaa;" horiz-adv-x="782" d="M281 651q-117 0 -189 59.5t-72 166.5q0 129 117 192.5t342 54.5v29q-2 123 -82 123q-88 0 -96 -121q-106 10 -254 12q8 133 104.5 206t251.5 73q322 0 338 -328q6 -92 6.5 -204.5t-2.5 -178.5l-4 -65q-78 -2 -215 0q4 45 9 108q-66 -127 -254 -127zM375 805q51 0 80.5 40 t31.5 118v51q-199 0 -198 -117q0 -43 23.5 -67.5t62.5 -24.5z" />
<glyph unicode="&#xab;" horiz-adv-x="782" d="M199 272l-187 430q86 150 209 400q68 -6 230 -8q-92 -164 -209 -402q59 -150 180 -403q-67 -3 -223 -17zM528 276q-59 150 -184 418l186 367q76 -6 224 -8q-86 -156 -187 -371l189 -399q-78 1 -228 -7z" />
<glyph unicode="&#xad;" horiz-adv-x="589" d="M25 535l-2 276l542 -6q-8 -227 -4 -270h-536z" />
<glyph unicode="&#xae;" horiz-adv-x="802" d="M408 563q-205 0 -296.5 114t-91.5 337q0 209 90.5 328.5t284.5 119.5q387 0 387 -458q1 -441 -374 -441zM410 643q285 0 284 350q0 197 -70.5 293t-234.5 96q-145 0 -214 -92t-69 -282q0 -188 67 -276.5t237 -88.5zM459 731q-16 70 -53 182q-25 -2 -46 -2q0 -86 7 -170 q-53 2 -154 0q4 205 4 551q74 14 148 15q252 0 251 -201q0 -106 -81 -156q23 -70 73 -192q-59 -9 -149 -27zM362 1008q92 -6 93 90q0 100 -95 92z" />
<glyph unicode="&#xaf;" d="M266 1176q2 57 -4 190q147 -2 557 4q-4 -53 -4 -192q-162 4 -549 -2z" />
<glyph unicode="&#xb0;" horiz-adv-x="620" d="M315 856q-129 0 -213 80t-84 229q0 125 76 207t213 82q143 0 220 -78t77 -211q0 -143 -77 -226t-212 -83zM313 1001q55 0 87 41t32 117q0 68 -30.5 111t-90.5 43q-57 0 -89 -45t-32 -109q0 -70 33 -114t90 -44z" />
<glyph unicode="&#xb2;" horiz-adv-x="692" d="M653 623l-616 6l-8 213q184 72 293.5 167t109.5 203q0 106 -80 107q-113 0 -94 -211q-102 0 -229 -2q-18 182 67.5 278.5t261.5 96.5q147 0 229.5 -70t82.5 -190q0 -131 -102.5 -240t-272.5 -178q203 2 358 12v-192z" />
<glyph unicode="&#xb3;" horiz-adv-x="741" d="M373 594q-184 0 -272.5 84t-77.5 250q102 -6 241 -13q-6 -158 107 -157q47 0 75.5 24.5t28.5 73.5q0 72 -59 98q-57 23 -183 15q0 53 -4 143q119 -10 183 16q57 23 57 91q0 100 -96 100q-51 0 -79 -40t-24 -112l-239 -4q-12 160 81 240t267 80q150 0 238 -66.5t90 -175.5 q0 -78 -41 -128t-111 -64q76 -16 119 -71.5t43 -131.5q0 -119 -96 -185.5t-248 -66.5z" />
<glyph unicode="&#xb4;" d="M485 1096l-151 102q160 211 223 313l193 -133z" />
<glyph unicode="&#xb6;" horiz-adv-x="1077" d="M682 1163q-51 -4 -98 -12q-8 -461 -6 -1038q-252 16 -400.5 185t-148.5 472q0 326 184 494t539 168q113 0 237 -19q-6 -645 15 -1732q-94 8 -332 8q8 989 10 1474z" />
<glyph unicode="&#xb7;" horiz-adv-x="468" d="M231 514q-84 0 -134 54.5t-50 140.5q0 88 52.5 141t136.5 53q86 0 135 -52t49 -142q0 -96 -50.5 -145.5t-138.5 -49.5z" />
<glyph unicode="&#xb8;" d="M442 14l131 2q-4 -47 -4 -108q104 -2 161.5 -44t57.5 -110q0 -84 -77.5 -133t-212.5 -49q-106 0 -199 41q12 53 23 127q86 -41 165 -41q94 0 95 53q0 66 -179 49q21 86 39 213z" />
<glyph unicode="&#xb9;" horiz-adv-x="522" d="M205 621q0 485 -2 571l-129 -68l-70 195l272 143l158 -14l8 -825z" />
<glyph unicode="&#xba;" horiz-adv-x="804" d="M401 637q-377 0 -376 424q0 182 103 286.5t278 104.5q186 0 281 -106.5t95 -296.5q0 -207 -103.5 -309.5t-277.5 -102.5zM406 815q104 0 104 234q0 229 -104 229q-111 0 -111 -217q0 -246 111 -246z" />
<glyph unicode="&#xbb;" horiz-adv-x="788" d="M250 279q-82 8 -223 12q74 129 194 381q-66 162 -178 401q68 0 221 14q53 -143 180 -425q-83 -152 -194 -383zM582 283q-59 8 -228 10q74 131 195 385l-180 401q76 -2 229 8q61 -160 178 -419q-79 -143 -194 -385z" />
<glyph unicode="&#xbc;" horiz-adv-x="1519" d="M205 621q0 485 -2 571l-129 -68l-70 195l272 143l158 -14l8 -825zM383 -33q-76 14 -186 25l854 1438l188 -21zM1202 -8q0 106 2 158l-418 -7q0 47 -4 176l299 521l342 -9q-2 -223 -2 -516l76 2q-2 -59 -2 -167h-72l2 -156zM1004 315h202v365q-128 -222 -202 -365z" />
<glyph unicode="&#xbd;" horiz-adv-x="1536" d="M205 621q0 485 -2 571l-129 -68l-70 195l272 143l158 -14l8 -825zM383 -33q-76 14 -186 25l854 1438l188 -21zM1497 -8l-616 6l-9 213q184 72 294 167t110 204q0 106 -80 106q-113 0 -94 -211q-102 0 -230 -2q-18 182 68 278.5t262 96.5q147 0 229 -69.5t82 -190.5 q0 -131 -102 -239.5t-272 -178.5q203 2 358 12v-192z" />
<glyph unicode="&#xbe;" horiz-adv-x="1656" d="M373 594q-184 0 -272.5 84t-77.5 250q102 -6 241 -13q-6 -158 107 -157q47 0 75.5 24.5t28.5 73.5q0 72 -59 98q-57 23 -183 15q0 53 -4 143q119 -10 183 16q57 23 57 91q0 100 -96 100q-51 0 -79 -40t-24 -112l-239 -4q-12 160 81 240t267 80q150 0 238 -66.5t90 -175.5 q0 -78 -41 -128t-111 -64q76 -16 119 -71.5t43 -131.5q0 -119 -96 -185.5t-248 -66.5zM520 -33q-76 14 -186 25l854 1438l188 -21zM1339 -8q0 106 2 158l-417 -7q0 47 -4 176l299 521l342 -9q-2 -223 -2 -516l75 2q-2 -59 -2 -167h-71l2 -156zM1141 315h202v365 q-128 -222 -202 -365z" />
<glyph unicode="&#xbf;" horiz-adv-x="1058" d="M524 -252q-233 0 -367 114.5t-134 307.5q0 385 397 442v154q213 -2 332 4l6 -342q-205 8 -291 -45t-86 -180q0 -96 41 -149.5t115 -53.5q90 0 125.5 77t31.5 220l342 -2q4 -268 -124 -407.5t-388 -139.5zM584 840q-106 0 -164 55t-58 152q0 90 58.5 143t157.5 53 q111 0 169 -56.5t58 -148.5q0 -90 -61.5 -144t-159.5 -54z" />
<glyph unicode="&#xc0;" horiz-adv-x="1116" d="M4 35l299 1395l494 8l315 -1473q-174 2 -352 -2l-49 281q-147 4 -338 4q-14 -80 -33 -217zM541 1200l-127 -700h252zM537 1513l-263 283l193 133q63 -102 223 -313q-49 -29 -153 -103z" />
<glyph unicode="&#xc1;" horiz-adv-x="1116" d="M4 35l299 1395l494 8l315 -1473q-174 2 -352 -2l-49 281q-147 4 -338 4q-14 -80 -33 -217zM541 1200l-127 -700h252zM567 1513l-151 103q160 211 223 313l192 -133z" />
<glyph unicode="&#xc2;" horiz-adv-x="1116" d="M4 35l299 1395l494 8l315 -1473q-174 2 -352 -2l-49 281q-147 4 -338 4q-14 -80 -33 -217zM541 1200l-127 -700h252zM334 1501l-127 123q84 76 229 227q57 0 199 13q72 -78 242 -228q-41 -37 -127 -133q-70 72 -213 185q-68 -54 -203 -187z" />
<glyph unicode="&#xc3;" horiz-adv-x="1116" d="M4 35l299 1395l494 8l315 -1473q-174 2 -352 -2l-49 281q-147 4 -338 4q-14 -80 -33 -217zM541 1200l-127 -700h252zM383 1544q-57 2 -172 -4q-8 139 43 224t147 85q66 0 148 -54t110 -54q55 0 43 102q47 -2 162 10q23 -145 -23 -227t-149 -82q-66 0 -147.5 49t-110.5 49 q-57 0 -51 -98z" />
<glyph unicode="&#xc4;" horiz-adv-x="1116" d="M4 35l299 1395l494 8l315 -1473q-174 2 -352 -2l-49 281q-147 4 -338 4q-14 -80 -33 -217zM541 1200l-127 -700h252zM360 1550q-70 0 -106.5 41t-36.5 102.5t41 99.5t102 38q68 0 106 -39t38 -100q0 -70 -41.5 -106t-102.5 -36zM727 1556q-61 0 -99 39t-38 105 q0 59 37 96t104 37q63 0 98 -39t35 -98q0 -68 -38 -104t-99 -36z" />
<glyph unicode="&#xc5;" horiz-adv-x="1116" d="M4 35l299 1395l494 8l315 -1473q-174 2 -352 -2l-49 281q-147 4 -338 4q-14 -80 -33 -217zM541 1200l-127 -700h252zM549 1524q-109 0 -167 58t-58 149q0 92 63.5 145t163.5 53q109 0 169 -57t60 -141q0 -104 -65.5 -155.5t-165.5 -51.5zM555 1634q39 0 62.5 27t23.5 70 q0 39 -22.5 67.5t-63.5 28.5q-43 0 -66.5 -26.5t-23.5 -69.5t23.5 -70t66.5 -27z" />
<glyph unicode="&#xc6;" horiz-adv-x="1527" d="M1423 565l-411 2l41 -303q156 -2 434 8q-2 -98 -2 -280q-242 0 -719 -17l-35 269q-135 4 -344 4l-43 -219l-340 4q147 555 326 1392q373 -2 630 0t392 7l135 4q-2 -115 4 -291q-223 4 -549 -2l39 -316q287 0 440 4q-2 -108 2 -266zM588 1217q-55 -231 -152 -717 q63 -2 260 -2q-49 354 -108 719z" />
<glyph unicode="&#xc7;" horiz-adv-x="1159" d="M1133 592q-8 -582 -465 -623v-69q104 -2 161.5 -44t57.5 -110q0 -84 -78 -133t-213 -49q-106 0 -199 41q12 53 23 127q86 -41 166 -41q94 0 94 53q0 66 -178 49q16 70 33 176q-489 39 -490 740q0 367 140.5 558t418.5 191q248 0 374 -157.5t136 -423.5l-358 -7 q-14 315 -166 316q-186 0 -184 -473q0 -248 46 -360.5t144 -112.5q82 0 126 79.5t46 276.5z" />
<glyph unicode="&#xc8;" horiz-adv-x="940" d="M90 8q-2 588 -16 1413l815 11q0 -109 4 -287q-207 -2 -487 -8q-2 -119 2 -316q258 0 407 4q-2 -96 2 -268q-156 4 -405 0q4 -186 8 -272q178 -8 481 -13l-2 -282q-375 14 -809 18zM485 1511l-262 283l193 133q63 -102 223 -313q-50 -29 -154 -103z" />
<glyph unicode="&#xc9;" horiz-adv-x="940" d="M514 1511l-152 103q160 211 224 313l192 -133zM90 8q-2 588 -16 1413l815 11q0 -109 4 -287q-207 -2 -487 -8q-2 -119 2 -316q258 0 407 4q-2 -96 2 -268q-156 4 -405 0q4 -186 8 -272q178 -8 481 -13l-2 -282q-375 14 -809 18z" />
<glyph unicode="&#xca;" horiz-adv-x="940" d="M283 1505l-127 123q84 76 229 227q57 0 199 13q72 -78 241 -228q-41 -37 -127 -133q-70 72 -213 185q-67 -54 -202 -187zM90 8q-2 588 -16 1413l815 11q0 -109 4 -287q-207 -2 -487 -8q-2 -119 2 -316q258 0 407 4q-2 -96 2 -268q-156 4 -405 0q4 -186 8 -272 q178 -8 481 -13l-2 -282q-375 14 -809 18z" />
<glyph unicode="&#xcb;" horiz-adv-x="940" d="M311 1550q-70 0 -106.5 41t-36.5 102.5t41 99.5t102 38q68 0 106 -39t38 -100q0 -70 -41.5 -106t-102.5 -36zM677.5 1556q-61.5 0 -99 39t-37.5 105q0 59 36.5 96t104.5 37q63 0 98 -39t35 -98q0 -68 -38 -104t-99.5 -36zM90 8q-2 588 -16 1413l815 11q0 -109 4 -287 q-207 -2 -487 -8q-2 -119 2 -316q258 0 407 4q-2 -96 2 -268q-156 4 -405 0q4 -186 8 -272q178 -8 481 -13l-2 -282q-375 14 -809 18z" />
<glyph unicode="&#xcc;" horiz-adv-x="526" d="M98 -2q2 629 -8 1423q119 0 336 2q2 -686 10 -1425q-139 2 -338 0zM258 1507l-262 283l192 133q63 -102 224 -313q-50 -29 -154 -103z" />
<glyph unicode="&#xcd;" horiz-adv-x="526" d="M98 -2q2 629 -8 1423q119 0 336 2q2 -686 10 -1425q-139 2 -338 0zM291 1507l-152 103q160 211 223 313l193 -133z" />
<glyph unicode="&#xce;" horiz-adv-x="526" d="M98 -2q2 629 -8 1423q119 0 336 2q2 -686 10 -1425q-139 2 -338 0zM57 1501l-127 123q84 76 230 227q57 0 198 13q72 -78 242 -228q-41 -37 -127 -133q-70 72 -213 185q-68 -54 -203 -187z" />
<glyph unicode="&#xcf;" horiz-adv-x="526" d="M98 -2q2 629 -8 1423q119 0 336 2q2 -686 10 -1425q-139 2 -338 0zM84 1550q-70 0 -106.5 41t-36.5 102.5t41 99.5t102 38q68 0 105.5 -39t37.5 -100q0 -70 -41 -106t-102 -36zM450.5 1556q-61.5 0 -99.5 39t-38 105q0 59 37 96t105 37q63 0 98 -39t35 -98 q0 -68 -38 -104t-99.5 -36z" />
<glyph unicode="&#xd0;" horiz-adv-x="1204" d="M125 -10l4 569q-78 -2 -121 -2l4 291q39 -4 117 -6l-2 567q164 29 322 29q360 0 535 -185.5t175 -560.5q0 -383 -182 -553t-565 -170q-117 1 -287 21zM467 227q18 -2 51 -2q145 0 215 107.5t70 367.5q0 473 -291 474q-37 0 -57 -3q0 -229 2 -335h141q-4 -82 2 -269 q-53 0 -139 -2z" />
<glyph unicode="&#xd1;" horiz-adv-x="1144" d="M80 35q6 512 -6 1341q145 8 323 15q152 -387 371 -881q-10 449 -39 950q141 -4 315 -4q6 -561 27 -1470q-129 -12 -321 -23l-375 862q4 -303 24 -794q-145 4 -319 4zM412 1552q-57 2 -172 -4q-8 139 43 224.5t147 85.5q66 0 147.5 -54.5t110.5 -54.5q55 0 43 102 q47 -2 162 11q23 -145 -23.5 -227.5t-148.5 -82.5q-66 0 -147.5 49.5t-110.5 49.5q-57 -1 -51 -99z" />
<glyph unicode="&#xd2;" horiz-adv-x="1198" d="M600 -37q-272 0 -412.5 189.5t-142.5 552.5q-4 344 136.5 546.5t418.5 202.5q281 0 418 -197.5t135 -549.5q-2 -744 -553 -744zM600 225q94 0 143.5 110.5t49.5 377.5q0 475 -195 475t-195 -475q0 -258 49.5 -373t147.5 -115zM594 1507l-262 283l192 133 q63 -102 224 -313q-50 -29 -154 -103z" />
<glyph unicode="&#xd3;" horiz-adv-x="1198" d="M625 1507l-152 103q160 211 223 313l193 -133zM600 -37q-272 0 -412.5 189.5t-142.5 552.5q-4 344 136.5 546.5t418.5 202.5q281 0 418 -197.5t135 -549.5q-2 -744 -553 -744zM600 225q94 0 143.5 110.5t49.5 377.5q0 475 -195 475t-195 -475q0 -258 49.5 -373 t147.5 -115z" />
<glyph unicode="&#xd4;" horiz-adv-x="1198" d="M391 1497l-127 123q84 76 230 227q57 0 198 13q72 -78 242 -228q-41 -37 -127 -133q-70 72 -213 184q-68 -53 -203 -186zM600 -37q-272 0 -412.5 189.5t-142.5 552.5q-4 344 136.5 546.5t418.5 202.5q281 0 418 -197.5t135 -549.5q-2 -744 -553 -744zM600 225 q94 0 143.5 110.5t49.5 377.5q0 475 -195 475t-195 -475q0 -258 49.5 -373t147.5 -115z" />
<glyph unicode="&#xd5;" horiz-adv-x="1198" d="M600 -37q-272 0 -412.5 189.5t-142.5 552.5q-4 344 136.5 546.5t418.5 202.5q281 0 418 -197.5t135 -549.5q-2 -744 -553 -744zM600 225q94 0 143.5 110.5t49.5 377.5q0 475 -195 475t-195 -475q0 -258 49.5 -373t147.5 -115zM438 1536q-57 2 -172 -4q-8 139 43 224 t148 85q63 0 147 -54t111 -54q55 0 43 102q47 -2 162 10q23 -145 -23.5 -227t-148.5 -82q-63 0 -147.5 49t-111.5 49q-57 0 -51 -98z" />
<glyph unicode="&#xd6;" horiz-adv-x="1198" d="M418 1548q-70 0 -107 41t-37 102.5t41 99.5t103 38q68 0 105.5 -39t37.5 -100q0 -70 -41 -106t-102 -36zM784.5 1554q-61.5 0 -99.5 39t-38 105q0 59 37 96t104 37q63 0 98.5 -39t35.5 -98q0 -68 -38 -104t-99.5 -36zM600 -37q-272 0 -412.5 189.5t-142.5 552.5 q-4 344 136.5 546.5t418.5 202.5q281 0 418 -197.5t135 -549.5q-2 -744 -553 -744zM600 225q94 0 143.5 110.5t49.5 377.5q0 475 -195 475t-195 -475q0 -258 49.5 -373t147.5 -115z" />
<glyph unicode="&#xd7;" horiz-adv-x="858" d="M199 254q-49 55 -164 162l239 250l-241 258l170 163l229 -253l230 253q63 -68 163 -157l-243 -256l243 -254l-172 -168l-229 254z" />
<glyph unicode="&#xd8;" horiz-adv-x="1212" d="M367 -242q-106 61 -273 140q49 68 133 200q-182 195 -182 613q0 354 143.5 543.5t409.5 189.5q80 0 166 -21q37 90 74 201q104 -55 290 -135q-55 -76 -137 -207q162 -186 162 -573q0 -369 -139.5 -562.5t-417.5 -193.5q-72 0 -143 16q-29 -66 -86 -211zM596 217 q98 0 147.5 116t49.5 386q0 461 -195 461q-100 0 -148.5 -115t-48.5 -356q0 -492 195 -492z" />
<glyph unicode="&#xd9;" horiz-adv-x="1107" d="M557 -29q-266 0 -389 202t-123 615q0 299 51 613q100 -16 326 -41q-45 -332 -45 -518q0 -559 176 -559q90 0 129 104.5t39 374.5q0 303 -55 680q117 4 335 22q63 -387 64 -688q0 -410 -121 -607.5t-387 -197.5zM549 1491l-262 283l192 133q63 -102 223 -314 q-49 -28 -153 -102z" />
<glyph unicode="&#xda;" horiz-adv-x="1107" d="M580 1499l-152 103q160 211 223 313l193 -133zM557 -29q-266 0 -389 202t-123 615q0 299 51 613q100 -16 326 -41q-45 -332 -45 -518q0 -559 176 -559q90 0 129 104.5t39 374.5q0 303 -55 680q117 4 335 22q63 -387 64 -688q0 -410 -121 -607.5t-387 -197.5z" />
<glyph unicode="&#xdb;" horiz-adv-x="1107" d="M346 1501l-127 123q84 76 230 227q57 0 198 13q72 -78 242 -228q-41 -37 -127 -133q-70 72 -213 185q-68 -54 -203 -187zM557 -29q-266 0 -389 202t-123 615q0 299 51 613q100 -16 326 -41q-45 -332 -45 -518q0 -559 176 -559q90 0 129 104.5t39 374.5q0 303 -55 680 q117 4 335 22q63 -387 64 -688q0 -410 -121 -607.5t-387 -197.5z" />
<glyph unicode="&#xdc;" horiz-adv-x="1107" d="M373 1544q-70 0 -107 41t-37 102.5t41 99.5t103 38q68 0 105.5 -39t37.5 -100q0 -70 -41 -106t-102 -36zM739.5 1550q-61.5 0 -99.5 39t-38 105q0 59 37 96t104 37q63 0 98.5 -39t35.5 -98q0 -68 -38 -104t-99.5 -36zM557 -29q-266 0 -389 202t-123 615q0 299 51 613 q100 -16 326 -41q-45 -332 -45 -518q0 -559 176 -559q90 0 129 104.5t39 374.5q0 303 -55 680q117 4 335 22q63 -387 64 -688q0 -410 -121 -607.5t-387 -197.5z" />
<glyph unicode="&#xdd;" horiz-adv-x="1112" d="M387 -25v49q0 38 -2 112.5t-6 168.5l-375 1077q88 0 367 13q55 -242 180 -686l203 735q100 -6 354 -6l-391 -1129q-4 -49 4 -332q-84 2 -334 -2zM575 1475l-151 102q160 211 223 313l193 -133z" />
<glyph unicode="&#xde;" horiz-adv-x="1077" d="M76 4q2 63 3 180t3 499t-2 753q129 -10 323 -11q-2 -70 -2 -161q657 23 658 -535q0 -274 -171 -411.5t-474 -131.5q0 -57 4 -180q-139 4 -342 -2zM401 1020q0 -41 2.5 -259t4.5 -351q315 -6 315 299q0 168 -73 243.5t-249 67.5z" />
<glyph unicode="&#xdf;" horiz-adv-x="1087" d="M80 37q-29 485 6 893q25 258 146.5 382t365.5 124q207 0 330 -108.5t123 -293.5q0 -123 -64.5 -208t-173.5 -121q119 -35 180.5 -124t61.5 -212q0 -205 -120 -301.5t-333 -96.5q-53 0 -113 6q4 66 9 230q215 -10 215 182q0 184 -213 191q4 66 -2 237q109 0 162 45t53 148 q0 178 -133 178q-145 0 -168 -244q-35 -367 0 -911q-221 -2 -332 4z" />
<glyph unicode="&#xe0;" horiz-adv-x="1005" d="M369 -31q-156 0 -249 79t-93 214q0 176 147.5 270.5t439.5 83.5q0 27 -2 48q-8 170 -116 170q-115 0 -125 -168q-119 2 -305 8q6 174 122.5 278.5t313.5 104.5q225 0 331.5 -109.5t110.5 -324.5q8 -340 2 -652q-98 0 -266 -2q6 63 8 162q-86 -162 -319 -162zM629 420v39 q-143 4 -209 -41t-66 -123q0 -115 117 -115q158 0 158 240zM496 1108l-263 283l193 133q63 -102 223 -314q-49 -28 -153 -102z" />
<glyph unicode="&#xe1;" horiz-adv-x="1005" d="M369 -31q-156 0 -249 79t-93 214q0 176 147.5 270.5t439.5 83.5q0 27 -2 48q-8 170 -116 170q-115 0 -125 -168q-119 2 -305 8q6 174 122.5 278.5t313.5 104.5q225 0 331.5 -109.5t110.5 -324.5q8 -340 2 -652q-98 0 -266 -2q6 63 8 162q-86 -162 -319 -162zM629 420v39 q-143 4 -209 -41t-66 -123q0 -115 117 -115q158 0 158 240zM526 1108l-151 102q160 211 223 314l193 -133z" />
<glyph unicode="&#xe2;" horiz-adv-x="1005" d="M369 -31q-156 0 -249 79t-93 214q0 176 147.5 270.5t439.5 83.5q0 27 -2 48q-8 170 -116 170q-115 0 -125 -168q-119 2 -305 8q6 174 122.5 278.5t313.5 104.5q225 0 331.5 -109.5t110.5 -324.5q8 -340 2 -652q-98 0 -266 -2q6 63 8 162q-86 -162 -319 -162zM629 420v39 q-143 4 -209 -41t-66 -123q0 -115 117 -115q158 0 158 240zM295 1102l-127 123q84 76 229 227q57 0 199 12q72 -78 242 -227q-41 -37 -127 -133q-70 72 -213 184q-68 -53 -203 -186z" />
<glyph unicode="&#xe3;" horiz-adv-x="1005" d="M369 -31q-156 0 -249 79t-93 214q0 176 147.5 270.5t439.5 83.5q0 27 -2 48q-8 170 -116 170q-115 0 -125 -168q-119 2 -305 8q6 174 122.5 278.5t313.5 104.5q225 0 331.5 -109.5t110.5 -324.5q8 -340 2 -652q-98 0 -266 -2q6 63 8 162q-86 -162 -319 -162zM629 420v39 q-143 4 -209 -41t-66 -123q0 -115 117 -115q158 0 158 240zM344 1139q-57 2 -172 -4q-8 139 43 224t147 85q63 0 147.5 -54.5t111.5 -54.5q55 0 43 103q47 -2 161 10q23 -145 -23 -227t-149 -82q-63 0 -147 49t-111 49q-57 0 -51 -98z" />
<glyph unicode="&#xe4;" horiz-adv-x="1005" d="M369 -31q-156 0 -249 79t-93 214q0 176 147.5 270.5t439.5 83.5q0 27 -2 48q-8 170 -116 170q-115 0 -125 -168q-119 2 -305 8q6 174 122.5 278.5t313.5 104.5q225 0 331.5 -109.5t110.5 -324.5q8 -340 2 -652q-98 0 -266 -2q6 63 8 162q-86 -162 -319 -162zM629 420v39 q-143 4 -209 -41t-66 -123q0 -115 117 -115q158 0 158 240zM322 1143q-70 0 -107 41t-37 102.5t41 99t103 37.5q68 0 105.5 -38.5t37.5 -100.5q0 -70 -41 -105.5t-102 -35.5zM688.5 1149q-61.5 0 -99.5 39t-38 104q0 59 37 96t104 37q63 0 98 -38.5t35 -98.5 q0 -68 -37.5 -103.5t-99 -35.5z" />
<glyph unicode="&#xe5;" horiz-adv-x="1005" d="M369 -31q-156 0 -249 79t-93 214q0 176 147.5 270.5t439.5 83.5q0 27 -2 48q-8 170 -116 170q-115 0 -125 -168q-119 2 -305 8q6 174 122.5 278.5t313.5 104.5q225 0 331.5 -109.5t110.5 -324.5q8 -340 2 -652q-98 0 -266 -2q6 63 8 162q-86 -162 -319 -162zM629 420v39 q-143 4 -209 -41t-66 -123q0 -115 117 -115q158 0 158 240zM504 1122q-109 0 -167 58.5t-58 148.5q0 92 63.5 145.5t163.5 53.5q109 0 169 -57.5t60 -141.5q0 -104 -65.5 -155.5t-165.5 -51.5zM510 1233q39 0 62.5 26.5t23.5 69.5q0 39 -22.5 67.5t-63.5 28.5 q-43 0 -66.5 -26.5t-23.5 -69.5t23.5 -69.5t66.5 -26.5z" />
<glyph unicode="&#xe6;" horiz-adv-x="1669" d="M1157 -39q-127 0 -232.5 46t-156.5 134q-102 -176 -367 -176q-174 0 -274 80t-100 221q0 342 587 334v33q0 199 -118.5 198.5t-124.5 -174.5q-109 6 -305 9q8 176 120.5 281.5t307.5 105.5q221 0 317 -148q115 150 344 150q252 0 368.5 -160t100.5 -444q-221 2 -635 -7 q14 -266 158 -266q119 0 141 170q166 -8 338 -12q-43 -184 -164 -279.5t-305 -95.5zM469 176q160 0 160 250v27q-147 -2 -211 -43t-64 -121q0 -51 29 -82t86 -31zM1145 844q-137 0 -156 -244q20 0 125 2t172 4q-4 238 -141 238z" />
<glyph unicode="&#xe7;" horiz-adv-x="1026" d="M999 422q-14 -217 -122.5 -326.5t-284.5 -126.5v-69q104 -2 161.5 -44t57.5 -110q0 -84 -78 -133t-213 -49q-106 0 -198 41q12 53 22 127q86 -41 166 -41q94 0 94 53q0 66 -178 49q16 72 33 178q-207 20 -310.5 161.5t-103.5 383.5q0 250 125 396.5t358 146.5 q215 0 339 -126t126 -329l-340 -4q-6 225 -129 225q-143 0 -143 -315q0 -295 145 -295q55 -2 89 51t36 164q100 -8 348 -8z" />
<glyph unicode="&#xe8;" horiz-adv-x="1062" d="M547 -33q-502 0 -502 553q0 242 129 389.5t358 147.5q516 -2 488 -623q-223 -2 -635 -10q18 -240 158 -240q115 0 139 166l340 -10q-43 -182 -168 -277.5t-307 -95.5zM539 846q-137 0 -154 -260q193 4 297 10q-4 250 -143 250zM528 1116l-262 283l193 133 q63 -102 223 -313q-50 -29 -154 -103z" />
<glyph unicode="&#xe9;" horiz-adv-x="1062" d="M559 1116l-151 103q160 211 223 313l192 -133zM547 -33q-502 0 -502 553q0 242 129 389.5t358 147.5q516 -2 488 -623q-223 -2 -635 -10q18 -240 158 -240q115 0 139 166l340 -10q-43 -182 -168 -277.5t-307 -95.5zM539 846q-137 0 -154 -260q193 4 297 10 q-4 250 -143 250z" />
<glyph unicode="&#xea;" horiz-adv-x="1062" d="M328 1102l-127 123q84 76 229 227q57 0 199 12q72 -78 241 -227q-41 -37 -127 -133q-70 72 -213 184q-67 -53 -202 -186zM547 -33q-502 0 -502 553q0 242 129 389.5t358 147.5q516 -2 488 -623q-223 -2 -635 -10q18 -240 158 -240q115 0 139 166l340 -10 q-43 -182 -168 -277.5t-307 -95.5zM539 846q-137 0 -154 -260q193 4 297 10q-4 250 -143 250z" />
<glyph unicode="&#xeb;" horiz-adv-x="1062" d="M354 1145q-70 0 -106.5 41t-36.5 102.5t41 99t102 37.5q68 0 106 -38.5t38 -100.5q0 -70 -41.5 -105.5t-102.5 -35.5zM720.5 1151q-61.5 0 -99 39t-37.5 104q0 59 36.5 96t104.5 37q63 0 98 -38.5t35 -98.5q0 -68 -38 -103.5t-99.5 -35.5zM547 -33q-502 0 -502 553 q0 242 129 389.5t358 147.5q516 -2 488 -623q-223 -2 -635 -10q18 -240 158 -240q115 0 139 166l340 -10q-43 -182 -168 -277.5t-307 -95.5zM539 846q-137 0 -154 -260q193 4 297 10q-4 250 -143 250z" />
<glyph unicode="&#xec;" horiz-adv-x="489" d="M86 2q2 274 -6 1024q121 -2 328 2q-2 -469 6 -1024q-140 2 -328 -2zM242 1114l-262 283l192 133q63 -102 223 -313q-49 -29 -153 -103z" />
<glyph unicode="&#xed;" horiz-adv-x="489" d="M274 1114l-151 103q160 211 223 313l193 -133zM86 2q2 274 -6 1024q121 -2 328 2q-2 -469 6 -1024q-140 2 -328 -2z" />
<glyph unicode="&#xee;" horiz-adv-x="489" d="M41 1108l-127 123q84 76 229 227q57 0 199 12q72 -78 242 -227q-41 -37 -127 -133q-70 72 -213 184q-68 -53 -203 -186zM86 2q2 274 -6 1024q121 -2 328 2q-2 -469 6 -1024q-140 2 -328 -2z" />
<glyph unicode="&#xef;" horiz-adv-x="489" d="M68 1157q-70 0 -107 41t-37 102.5t41 99.5t103 38q68 0 105.5 -39t37.5 -101q0 -70 -41 -105.5t-102 -35.5zM434.5 1163q-61.5 0 -99.5 39t-38 105q0 59 37 96t104 37q63 0 98 -39t35 -98q0 -68 -37.5 -104t-99 -36zM86 2q2 274 -6 1024q121 -2 328 2q-2 -469 6 -1024 q-140 2 -328 -2z" />
<glyph unicode="&#xf0;" horiz-adv-x="1077" d="M537 -39q-238 0 -365 148.5t-127 425.5q0 236 105.5 378t283.5 142q164 0 252 -148q-57 236 -256 367l195 180q80 -51 149 -123q45 41 98 99l181 -226l-129 -88q113 -229 112.5 -536.5t-132 -463t-367.5 -155.5zM549 184q152 0 151 334q0 119 -41 213t-112 94 q-76 0 -118 -83t-42 -232q0 -326 162 -326z" />
<glyph unicode="&#xf1;" horiz-adv-x="1026" d="M641 -39l2 660q0 152 -98 151q-66 0 -104 -58.5t-42 -150.5l-2 -532q-178 4 -329 0l2 973q135 -4 260 2l-2 -164q43 96 132 155.5t204 57.5q143 -2 220 -92.5t81 -255.5q6 -147 6 -744zM373 1135q-57 2 -172 -5q-8 139 43 224.5t147 85.5q63 0 147.5 -54.5t110.5 -54.5 q55 0 43 103q47 -2 162 10q23 -145 -23.5 -227t-148.5 -82q-63 0 -147 49t-111 49q-57 0 -51 -98z" />
<glyph unicode="&#xf2;" d="M537 -27q-240 0 -366 144.5t-126 412.5q0 242 133 384.5t361 142.5q238 0 367.5 -144.5t127.5 -392.5q0 -276 -135 -411.5t-362 -135.5zM541 195q154 0 153 327q0 313 -151 314q-156 0 -156 -306q0 -178 37 -256.5t117 -78.5zM535 1110l-263 283l193 133 q63 -102 223 -314q-49 -28 -153 -102z" />
<glyph unicode="&#xf3;" d="M565 1110l-151 102q160 211 223 314l192 -133zM537 -27q-240 0 -366 144.5t-126 412.5q0 242 133 384.5t361 142.5q238 0 367.5 -144.5t127.5 -392.5q0 -276 -135 -411.5t-362 -135.5zM541 195q154 0 153 327q0 313 -151 314q-156 0 -156 -306q0 -178 37 -256.5 t117 -78.5z" />
<glyph unicode="&#xf4;" d="M334 1102l-127 123q84 76 229 227q57 0 199 12q72 -78 242 -227q-41 -37 -127 -133q-70 72 -213 184q-68 -53 -203 -186zM537 -27q-240 0 -366 144.5t-126 412.5q0 242 133 384.5t361 142.5q238 0 367.5 -144.5t127.5 -392.5q0 -276 -135 -411.5t-362 -135.5zM541 195 q154 0 153 327q0 313 -151 314q-156 0 -156 -306q0 -178 37 -256.5t117 -78.5z" />
<glyph unicode="&#xf5;" d="M537 -27q-240 0 -366 144.5t-126 412.5q0 242 133 384.5t361 142.5q238 0 367.5 -144.5t127.5 -392.5q0 -276 -135 -411.5t-362 -135.5zM541 195q154 0 153 327q0 313 -151 314q-156 0 -156 -306q0 -178 37 -256.5t117 -78.5zM383 1139q-57 2 -172 -4q-8 139 43 224 t147 85q66 0 148 -54.5t110 -54.5q55 0 43 103q47 -2 162 10q23 -145 -23 -227t-149 -82q-66 0 -147.5 49t-110.5 49q-57 0 -51 -98z" />
<glyph unicode="&#xf6;" d="M360 1147q-70 0 -106.5 41t-36.5 102.5t41 99t102 37.5q68 0 106 -38.5t38 -100.5q0 -70 -41.5 -105.5t-102.5 -35.5zM727 1153q-61 0 -99 39t-38 104q0 59 37 96.5t104 37.5q63 0 98 -39t35 -99q0 -68 -38 -103.5t-99 -35.5zM537 -27q-240 0 -366 144.5t-126 412.5 q0 242 133 384.5t361 142.5q238 0 367.5 -144.5t127.5 -392.5q0 -276 -135 -411.5t-362 -135.5zM541 195q154 0 153 327q0 313 -151 314q-156 0 -156 -306q0 -178 37 -256.5t117 -78.5z" />
<glyph unicode="&#xf7;" horiz-adv-x="761" d="M25 797q84 -2 712 -2q-6 -240 -2 -254q-512 10 -710 0v256zM379 1190q68 0 108.5 -44t40.5 -112q0 -72 -43 -113.5t-110.5 -41.5t-108.5 41t-41 114q0 76 41 116t113 40zM381 463q72 0 110.5 -41t38.5 -119q0 -68 -42 -108.5t-109 -40.5q-70 0 -110 41t-40 108 q0 78 41 119t111 41z" />
<glyph unicode="&#xf8;" horiz-adv-x="1101" d="M547 -23q-66 0 -113 9q-23 -49 -80 -197q-102 57 -258 131l115 166q-158 139 -158 440q0 256 129 395.5t371 139.5q39 0 104 -8q41 102 76 198q111 -59 266 -129l-114 -176q162 -143 162 -430q0 -250 -132 -394.5t-368 -144.5zM549 197q80 0 116.5 76.5t36.5 242.5 q0 322 -153.5 322t-153.5 -316q0 -172 37 -248.5t117 -76.5z" />
<glyph unicode="&#xf9;" horiz-adv-x="1030" d="M410 -8q-188 0 -270.5 140t-82.5 464q0 223 27 430q80 -12 309 -22q-16 -150 -16 -330q0 -238 29.5 -326t99.5 -88q53 0 89 54.5t38 158.5q4 150 2 280t-4 218l-4 88q84 -4 329 -4q-6 -449 2 -1082l-272 2q2 74 4 172q-94 -155 -280 -155zM502 1108l-262 283l192 133 q63 -102 223 -314q-49 -28 -153 -102z" />
<glyph unicode="&#xfa;" horiz-adv-x="1030" d="M532 1108l-151 102q160 211 223 314l193 -133zM410 -8q-188 0 -270.5 140t-82.5 464q0 223 27 430q80 -12 309 -22q-16 -150 -16 -330q0 -238 29.5 -326t99.5 -88q53 0 89 54.5t38 158.5q4 150 2 280t-4 218l-4 88q84 -4 329 -4q-6 -449 2 -1082l-272 2q2 74 4 172 q-94 -155 -280 -155z" />
<glyph unicode="&#xfb;" horiz-adv-x="1030" d="M301 1102l-127 123q84 76 229 227q57 0 199 12q72 -78 242 -227q-41 -37 -127 -133q-70 72 -213 184q-68 -53 -203 -186zM410 -8q-188 0 -270.5 140t-82.5 464q0 223 27 430q80 -12 309 -22q-16 -150 -16 -330q0 -238 29.5 -326t99.5 -88q53 0 89 54.5t38 158.5 q4 150 2 280t-4 218l-4 88q84 -4 329 -4q-6 -449 2 -1082l-272 2q2 74 4 172q-94 -155 -280 -155z" />
<glyph unicode="&#xfc;" horiz-adv-x="1030" d="M328 1149q-70 0 -107 41t-37 102.5t41 99.5t103 38q68 0 105.5 -39t37.5 -101q0 -70 -41 -105.5t-102 -35.5zM694.5 1155q-61.5 0 -99.5 39t-38 104q0 59 37 96.5t104 37.5q63 0 98 -39t35 -99q0 -68 -37.5 -103.5t-99 -35.5zM410 -8q-188 0 -270.5 140t-82.5 464 q0 223 27 430q80 -12 309 -22q-16 -150 -16 -330q0 -238 29.5 -326t99.5 -88q53 0 89 54.5t38 158.5q4 150 2 280t-4 218l-4 88q84 -4 329 -4q-6 -449 2 -1082l-272 2q2 74 4 172q-94 -155 -280 -155z" />
<glyph unicode="&#xfd;" horiz-adv-x="995" d="M588 -473l-330 47l88 340l-178 575l-125 383l-39 117q102 2 190.5 6t124.5 9l37 4q37 -197 75 -374l56 -257l19 -78l84 420q37 193 49 270l12 78l342 -16zM524 1106l-151 102q160 211 223 314l192 -133z" />
<glyph unicode="&#xfe;" horiz-adv-x="1097" d="M68 -422q4 385 4 837.5t-2 714.5l-2 261l327 2q-10 -176 -10 -480q104 145 289 146q182 0 279.5 -152.5t97.5 -396.5q2 -260 -104.5 -396.5t-282.5 -136.5q-188 0 -275 125q10 -375 23 -522q-154 4 -344 -2zM555 188q152 0 152 326t-152 326q-156 0 -156 -326 q0 -172 38 -249t118 -77z" />
<glyph unicode="&#xff;" horiz-adv-x="995" d="M588 -473l-330 47l88 340l-178 575l-125 383l-39 117q102 2 190.5 6t124.5 9l37 4q37 -197 75 -374l56 -257l19 -78l84 420q37 193 49 270l12 78l342 -16zM319 1149q-70 0 -106.5 41t-36.5 102.5t41 99.5t102 38q68 0 106 -39t38 -101q0 -70 -41.5 -105.5t-102.5 -35.5z M686.5 1155q-61.5 0 -99.5 39t-38 104q0 59 37 96.5t104 37.5q63 0 98 -39t35 -99q0 -68 -37.5 -103.5t-99 -35.5z" />
<glyph unicode="&#x152;" horiz-adv-x="1665" d="M1540 563l-410 2l7 -278q193 -10 489 -13q-4 -115 -4 -284q-197 16 -766 26q0 33 2 101q-41 -74 -125 -115t-186 -41q-236 0 -369 192.5t-133 551.5q0 344 128 546.5t374 202.5q201 0 305 -135l-2 90q160 0 766 21q0 -127 6 -287q-227 0 -489 -8q-2 -125 -3 -312 q207 0 408 4q-2 -112 2 -264zM600 223q94 0 143.5 109.5t49.5 380.5q0 246 -48.5 359.5t-148.5 113.5q-193 0 -193 -475q0 -488 197 -488z" />
<glyph unicode="&#x153;" horiz-adv-x="1720" d="M1219 -41q-256 0 -367 170q-115 -154 -332 -154q-229 0 -352 145.5t-123 411.5q0 248 126 387.5t345 139.5q233 0 350 -166q117 156 344 156q244 0 363 -157t102 -464q-188 2 -633 -10q20 -242 158 -242q119 0 137 170q166 -10 340 -16q-37 -174 -153.5 -272.5 t-304.5 -98.5zM543 190q150 0 149 330q0 324 -149 324q-158 0 -158 -314q0 -184 39 -262t119 -78zM1194 838q-139 0 -154 -263q109 2 299 13q-4 250 -145 250z" />
<glyph unicode="&#x178;" horiz-adv-x="1112" d="M387 -25v49q0 38 -2 112.5t-6 168.5l-375 1077q88 0 367 13q55 -242 180 -686l203 735q100 -6 354 -6l-391 -1129q-4 -49 4 -332q-84 2 -334 -2zM375 1536q-70 0 -107 41t-37 102.5t41 99.5t103 38q68 0 105.5 -39t37.5 -101q0 -70 -41 -105.5t-102 -35.5zM741.5 1542 q-61.5 0 -99.5 39t-38 105q0 59 37 96t104 37q63 0 98.5 -39t35.5 -99q0 -68 -38 -103.5t-99.5 -35.5z" />
<glyph unicode="&#x2c6;" d="M334 1090l-127 122q84 76 229 228q57 0 199 12q72 -78 242 -227q-41 -37 -127 -133q-70 72 -213 184q-68 -53 -203 -186z" />
<glyph unicode="&#x2dc;" d="M383 1126q-57 2 -172 -4q-8 139 43 224.5t147 85.5q66 0 148 -54.5t110 -54.5q55 0 43 102q47 -2 162 11q23 -145 -23 -227.5t-149 -82.5q-66 0 -147.5 49.5t-110.5 49.5q-57 -1 -51 -99z" />
<glyph unicode="&#x2000;" horiz-adv-x="964" />
<glyph unicode="&#x2001;" horiz-adv-x="1929" />
<glyph unicode="&#x2002;" horiz-adv-x="964" />
<glyph unicode="&#x2003;" horiz-adv-x="1929" />
<glyph unicode="&#x2004;" horiz-adv-x="643" />
<glyph unicode="&#x2005;" horiz-adv-x="481" />
<glyph unicode="&#x2006;" horiz-adv-x="321" />
<glyph unicode="&#x2007;" horiz-adv-x="321" />
<glyph unicode="&#x2008;" horiz-adv-x="239" />
<glyph unicode="&#x2009;" horiz-adv-x="385" />
<glyph unicode="&#x200a;" horiz-adv-x="106" />
<glyph unicode="&#x2010;" horiz-adv-x="589" d="M25 535l-2 276l542 -6q-8 -227 -4 -270h-536z" />
<glyph unicode="&#x2011;" horiz-adv-x="589" d="M25 535l-2 276l542 -6q-8 -227 -4 -270h-536z" />
<glyph unicode="&#x2012;" horiz-adv-x="589" d="M25 535l-2 276l542 -6q-8 -227 -4 -270h-536z" />
<glyph unicode="&#x2013;" horiz-adv-x="716" d="M692 539q-375 6 -669 2q6 135 4 270q418 -4 665 2v-274z" />
<glyph unicode="&#x2014;" horiz-adv-x="862" d="M27 539q2 137 -4 270q584 0 817 4q-2 -90 -2 -276q-115 2 -390.5 3t-420.5 -1z" />
<glyph unicode="&#x2018;" horiz-adv-x="423" d="M211 920q-80 0 -127 55t-47 145q0 186 231 348l123 -94q-86 -70 -115 -139q49 -14 77 -55t28 -93q0 -76 -48 -121.5t-122 -45.5z" />
<glyph unicode="&#x2019;" horiz-adv-x="438" d="M166 901l-131 94q84 70 119 140q-98 37 -99 153q0 76 47.5 125t125 49t124.5 -56t47 -142q0 -100 -62 -195.5t-171 -167.5z" />
<glyph unicode="&#x201a;" horiz-adv-x="434" d="M168 -242q-80 61 -133 95q78 70 117 139q-45 16 -72 58t-27 93q0 78 47 126t125 48t125 -57t47 -141q0 -199 -229 -361z" />
<glyph unicode="&#x201c;" horiz-adv-x="815" d="M209 922q-80 0 -126 56t-46 144q0 188 235 357l129 -95q-74 -63 -116 -135q45 -16 72.5 -58t27.5 -95q0 -78 -48 -126t-128 -48zM598 877q-76 0 -125 57t-49 145t59.5 180.5t167.5 167.5l129 -94q-82 -68 -116 -137q49 -14 76.5 -55t27.5 -90q0 -80 -48 -127t-122 -47z " />
<glyph unicode="&#x201d;" horiz-adv-x="811" d="M543 915l-127 95q74 70 114 145q-47 16 -74.5 59t-27.5 99q0 78 48 125t126 47q80 0 125 -56.5t45 -144.5q0 -193 -229 -369zM158 909l-123 95q82 70 112 137q-47 14 -74.5 56t-27.5 93q0 74 48 121t122 47q80 0 126 -55t46 -143q0 -189 -229 -351z" />
<glyph unicode="&#x201e;" horiz-adv-x="811" d="M543 -233l-127 96q76 72 114 143q-47 16 -74.5 59.5t-27.5 100.5q0 76 48 124t126 48q80 0 126 -57.5t46 -143.5q0 -198 -231 -370zM160 -240l-125 95q84 74 112 139q-49 14 -76.5 55t-27.5 92q0 74 48 120t124 46q78 0 124 -54t46 -142q0 -185 -225 -351z" />
<glyph unicode="&#x2022;" horiz-adv-x="548" d="M279 446q-117 0 -180.5 73t-63.5 194q0 119 65.5 189.5t173.5 70.5q111 0 176.5 -74t65.5 -184q0 -127 -63 -198t-174 -71z" />
<glyph unicode="&#x2026;" horiz-adv-x="1335" d="M223 -2q-90 0 -139 55.5t-49 147.5q0 88 52 141t136 53t136.5 -55t50.5 -139q0 -98 -50.5 -150.5t-136.5 -52.5zM666 -43q-86 0 -136.5 56.5t-50.5 146.5q0 88 51.5 142t135.5 54q88 0 138 -55t48 -139q-2 -100 -51 -152.5t-135 -52.5zM1112 -14q-90 0 -140 55t-50 145 q0 88 52 141.5t138 53.5q88 0 139.5 -55.5t48.5 -139.5q-2 -98 -51 -149t-137 -51z" />
<glyph unicode="&#x202f;" horiz-adv-x="385" />
<glyph unicode="&#x2039;" horiz-adv-x="460" d="M193 272q-55 145 -181 420q80 145 197 391q59 -8 227 -10q-72 -129 -196 -389l180 -401q-73 1 -227 -11z" />
<glyph unicode="&#x203a;" horiz-adv-x="452" d="M254 281q-80 6 -227 8l188 379l-184 405q80 -2 227 6l182 -424z" />
<glyph unicode="&#x205f;" horiz-adv-x="481" />
<glyph unicode="&#x20ac;" horiz-adv-x="1245" d="M2 731q2 39 0 148h143q33 283 174.5 436t374.5 153q221 0 353.5 -138t156.5 -367l-366 -7q-18 236 -148 236q-160 0 -186 -307l485 10q-4 -49 -4 -150q-158 0 -487 -4q-2 -35 0 -71q330 4 503 10q-4 -45 0 -148q-158 0 -497 -4q14 -158 58 -227.5t126 -69.5 q74 0 113 53.5t53 188.5l365 -12q-33 -248 -167 -376t-368 -126q-473 0 -537 561l-143 -2q2 31 2 150h131q-2 29 0 65z" />
<glyph unicode="&#x2122;" horiz-adv-x="1165" d="M449 809q14 213 22 565q109 -4 252 4q25 -156 63 -346q23 141 58 391q125 -8 254 -8q6 -244 35 -645q-86 0 -179 -6q-4 213 -16 508q-33 -168 -59 -379q-106 0 -179 4q-20 127 -73 367q0 -268 6 -459q-73 4 -184 4zM12 1255q2 53 2 162q150 -2 420 6l-2 -168 q-47 0 -115 2q0 -233 7 -485q-74 4 -185 0l2 485z" />
<glyph unicode="&#xe000;" horiz-adv-x="1065" d="M0 1065h1065v-1065h-1065v1065z" />
<glyph unicode="&#xfb01;" horiz-adv-x="1220" d="M723 680q-88 2 -223 2l4 -653q-143 2 -324 -2q-6 319 -8 655h-141q2 80 -2 274q57 -4 145 -6v41q4 221 87 331t276 110q86 0 182 -21q-10 -88 -17 -264q-41 4 -57 4q-78 0 -109.5 -41t-31.5 -133v-33q70 -2 223 -2zM825 -37q2 299 -6 1049q119 0 326 4q0 -496 8 -1051 q-140 2 -328 -2zM989 1126q-199 0 -198 179q0 172 198 172q94 0 142.5 -47.5t48.5 -124.5q-1 -179 -191 -179z" />
<glyph unicode="&#xfb02;" horiz-adv-x="1228" d="M715 672q-74 2 -215 4l4 -643q-143 0 -324 -2q-6 311 -8 645h-141q2 84 -2 278q55 -4 145 -6v15q4 221 88 330.5t285 109.5q80 0 192 -23q-8 -88 -16 -264q-43 6 -76 6q-80 0 -109.5 -40t-33.5 -138v-2q68 -2 215 -2zM1151 -27l-328 4q8 989 2 1477l328 -4 q-8 -1092 -2 -1477z" />
<glyph unicode="&#xfb03;" horiz-adv-x="1937" d="M1440 700q-98 2 -244 2l4 -743q-143 0 -323 -2q-6 381 -9 745h-120q2 80 0 273q49 -4 122 -6v43q4 221 95.5 332.5t289.5 111.5q78 0 185 -22q-8 -86 -17 -265q-39 6 -69 7q-154 0 -154 -172v-41q76 -2 244 -2zM684 664q-61 2 -184 4l2 -635q-141 0 -322 -2 q-6 305 -8 637h-141q2 76 -2 272q53 -4 145 -6v27q6 442 393 442q94 0 199 -21q-10 -80 -16 -256q-43 6 -78 7q-92 0 -130 -45.5t-38 -141.5v-18h184zM1542 4q2 248 -6 997q119 0 326 3q0 -442 8 -998q-140 2 -328 -2zM1706 1126q-199 0 -199 179q0 80 49.5 125t147.5 45 q94 0 142 -46.5t48 -123.5q0 -179 -188 -179z" />
<glyph unicode="&#xfb04;" horiz-adv-x="1943" d="M1432 700q-92 2 -232 2l2 -751q-141 2 -323 0q-6 383 -7 751h-120q2 82 0 275q49 -2 122 -4v45q0 444 373 444q92 0 211 -24q-10 -86 -16 -264q-49 6 -86 6q-84 0 -118 -41t-34 -133v-37h234q-6 -111 -6 -269zM684 668q-61 2 -184 4l4 -649q-143 0 -324 -3q-6 315 -8 652 h-141q2 76 -2 272q55 -2 145 -4v23q4 219 99.5 331.5t304.5 112.5q94 0 198 -21q-10 -84 -18 -260q-45 6 -84 7q-92 0 -130 -45.5t-38 -139.5v-14q57 -2 182 -2zM1868 -6l-328 4l2 1446l328 -6z" />
</font>
</defs>
</svg>
